<?xml version="1.0" encoding="UTF-8" standalone="no"?>
<!-- Created with Inkscape (http://www.inkscape.org/) -->

<svg
   width="111.43068mm"
   height="127.82187mm"
   viewBox="0 0 111.43068 127.82187"
   version="1.1"
   id="svg1"
   xml:space="preserve"
   inkscape:version="1.4.2 (f4327f4, 2025-05-13)"
   sodipodi:docname="contaContrato.svg"
   xmlns:inkscape="http://www.inkscape.org/namespaces/inkscape"
   xmlns:sodipodi="http://sodipodi.sourceforge.net/DTD/sodipodi-0.dtd"
   xmlns="http://www.w3.org/2000/svg"
   xmlns:svg="http://www.w3.org/2000/svg"><sodipodi:namedview
     id="namedview1"
     pagecolor="#ffffff"
     bordercolor="#000000"
     borderopacity="0.25"
     inkscape:showpageshadow="2"
     inkscape:pageopacity="0.0"
     inkscape:pagecheckerboard="0"
     inkscape:deskcolor="#d1d1d1"
     inkscape:document-units="mm"
     inkscape:zoom="0.97386896"
     inkscape:cx="303.42891"
     inkscape:cy="565.27112"
     inkscape:window-width="1920"
     inkscape:window-height="991"
     inkscape:window-x="-9"
     inkscape:window-y="-9"
     inkscape:window-maximized="1"
     inkscape:current-layer="layer1"><inkscape:page
       x="0"
       y="-2.3763497e-14"
       width="111.43068"
       height="127.82188"
       id="page2"
       margin="0"
       bleed="0" /></sodipodi:namedview><defs
     id="defs1" /><g
     inkscape:label="Camada 1"
     inkscape:groupmode="layer"
     id="layer1"
     transform="translate(-55.018377,-64.943821)"><path
       style="display:inline;fill:#ffffff;stroke-width:0.249045;paint-order:fill markers stroke"
       d="m 156.06757,192.73714 c -0.18491,-0.0253 -0.37726,-0.0862 -0.42744,-0.13526 -0.0502,-0.0491 -0.31505,-0.0892 -0.58859,-0.0892 -0.32488,0 -0.53878,-0.05 -0.6169,-0.14408 -0.0658,-0.0792 -0.23315,-0.14545 -0.37195,-0.14713 -0.13882,-0.002 -0.3363,-0.0665 -0.43885,-0.14408 -0.10256,-0.0776 -0.26105,-0.14103 -0.3522,-0.14103 -0.0912,0 -0.18015,-0.0324 -0.19777,-0.072 -0.0176,-0.0396 -0.20491,-0.15806 -0.41623,-0.2632 -1.01863,-0.50679 -2.17365,-1.60464 -11.42638,-10.86077 -7.55815,-7.56094 -9.69523,-9.64778 -9.88004,-9.64778 -0.1297,0 -0.35963,0.0646 -0.51095,0.14349 -0.15132,0.0789 -0.35077,0.14376 -0.44322,0.14408 -0.0925,2.7e-4 -0.1681,0.0438 -0.1681,0.0966 0,0.0528 -0.12658,0.0961 -0.2813,0.0961 -0.15471,0 -0.34614,0.0648 -0.42538,0.14408 -0.0793,0.0792 -0.27155,0.14408 -0.42735,0.14408 -0.15579,0 -0.33707,0.0648 -0.40284,0.14408 -0.0681,0.0821 -0.27751,0.14409 -0.48636,0.14409 -0.20173,0 -0.38998,0.0375 -0.41833,0.0834 -0.0283,0.0459 -0.27836,0.11348 -0.55558,0.15026 -0.27722,0.0368 -0.54834,0.10156 -0.60249,0.14397 -0.0542,0.0424 -0.37467,0.10092 -0.71227,0.13002 -0.33759,0.0291 -0.64016,0.0942 -0.67238,0.14468 -0.0322,0.0505 -0.55565,0.11091 -1.16319,0.13432 -0.60755,0.0234 -1.19904,0.0937 -1.31444,0.15625 -0.28421,0.15403 -2.84904,0.15445 -3.13439,5.3e-4 -0.1154,-0.0623 -0.68528,-0.13222 -1.26641,-0.15549 -0.58113,-0.0233 -1.10901,-0.0844 -1.17307,-0.13574 -0.0641,-0.0514 -0.38825,-0.11683 -0.72041,-0.14544 -0.33216,-0.0286 -0.64823,-0.0867 -0.70238,-0.12912 -0.0542,-0.0424 -0.32528,-0.1072 -0.6025,-0.14398 -0.27722,-0.0368 -0.52723,-0.10439 -0.55558,-0.15025 -0.0284,-0.0459 -0.19201,-0.0834 -0.3637,-0.0834 -0.17169,0 -0.39607,-0.0635 -0.49862,-0.14102 -0.10255,-0.0776 -0.32693,-0.14241 -0.49863,-0.14409 -0.1717,-0.002 -0.31218,-0.0454 -0.31218,-0.0973 0,-0.0518 -0.11886,-0.12071 -0.26415,-0.15309 -0.27454,-0.0612 -0.81476,-0.27159 -1.10332,-0.42971 -0.0917,-0.0503 -0.24853,-0.0914 -0.34844,-0.0914 -0.0999,0 -0.23546,-0.0648 -0.30123,-0.14408 -0.0658,-0.0792 -0.21705,-0.14408 -0.33619,-0.14408 -0.11913,0 -0.27042,-0.0648 -0.33619,-0.14408 -0.0658,-0.0792 -0.19713,-0.14408 -0.29192,-0.14408 -0.0948,0 -0.18675,-0.0324 -0.20436,-0.072 -0.0303,-0.0683 -0.45122,-0.30737 -1.4248,-0.80948 -0.23774,-0.12261 -0.45386,-0.24784 -0.48028,-0.27828 -0.0264,-0.0304 -0.19931,-0.13854 -0.38421,-0.24022 -0.18491,-0.10168 -0.37076,-0.23891 -0.41301,-0.30495 -0.0422,-0.066 -0.12869,-0.12076 -0.19211,-0.1216 -0.0634,-7.9e-4 -0.26658,-0.13005 -0.45148,-0.28714 -0.50456,-0.42863 -0.51537,-0.43648 -0.6964,-0.5056 -0.0924,-0.0353 -0.16809,-0.10876 -0.16809,-0.16325 0,-0.0545 -0.0453,-0.0991 -0.10064,-0.0991 -0.0554,0 -0.19583,-0.0988 -0.31218,-0.21957 -0.11634,-0.12077 -0.40604,-0.3685 -0.64378,-0.55052 -0.23773,-0.18201 -0.65728,-0.55868 -0.93233,-0.83702 -0.27505,-0.27835 -0.54521,-0.50609 -0.60034,-0.50609 -0.0551,0 -0.10025,-0.0401 -0.10025,-0.0892 0,-0.0491 -0.15656,-0.25439 -0.3479,-0.45626 -0.19135,-0.20187 -0.50418,-0.56155 -0.69519,-0.79929 -0.19101,-0.23773 -0.44509,-0.52743 -0.56462,-0.64378 -0.11953,-0.11634 -0.21732,-0.23979 -0.21732,-0.27434 0,-0.0807 -0.59965,-0.84864 -0.69568,-0.8909 -0.04,-0.0176 -0.0728,-0.0762 -0.0728,-0.13026 0,-0.054 -0.11887,-0.25592 -0.264148,-0.44863 -0.35282,-0.46801 -0.498518,-0.70007 -0.566304,-0.90195 -0.03104,-0.0924 -0.08994,-0.16809 -0.130879,-0.16809 -0.04094,0 -0.10156,-0.10807 -0.13471,-0.24014 -0.03315,-0.13207 -0.102671,-0.24014 -0.154492,-0.24014 -0.05182,0 -0.09423,-0.0624 -0.09423,-0.13863 0,-0.0763 -0.09607,-0.20592 -0.213481,-0.28816 -0.191651,-0.13424 -2.382301,-0.14953 -21.42417,-0.14953 -16.824121,0 -21.241863,-0.0248 -21.361426,-0.12007 -0.428432,-0.34126 -0.705644,-0.64967 -0.705644,-0.78506 0,-0.0833 -0.04322,-0.15147 -0.09605,-0.15147 -0.06385,0 -0.09605,-11.12629 -0.09605,-33.18677 V 92.231952 h 1.58447 1.584473 l 0.02445,32.026118 c 0.01344,17.61436 0.06046,32.06214 0.104481,32.10616 0.130255,0.13026 38.486413,0.15106 38.643179,0.021 0.170524,-0.14152 0.165121,-0.44909 -0.01392,-0.79238 -0.07892,-0.15132 -0.143492,-0.36998 -0.143492,-0.48592 0,-0.11594 -0.06346,-0.2947 -0.141025,-0.39725 -0.07757,-0.10255 -0.142402,-0.33893 -0.144082,-0.52529 -0.0016,-0.18635 -0.06301,-0.42443 -0.136297,-0.52906 -0.07328,-0.10463 -0.15715,-0.40601 -0.186368,-0.66974 -0.133199,-1.20229 -0.26753,-2.02998 -0.354327,-2.18317 -0.126481,-0.22324 -0.126452,-6.2698 3.4e-5,-6.50614 0.164759,-0.30785 0.23622,-1.51674 0.0994,-1.68159 -0.107733,-0.12981 -1.7317,-0.14629 -14.420334,-0.14629 H 67.220131 l -0.433652,-0.44618 c -0.427037,-0.43938 -0.433649,-0.45604 -0.433649,-1.09286 0,-0.45765 0.04212,-0.68163 0.144081,-0.76626 0.07925,-0.0658 0.144082,-0.15751 0.144082,-0.20387 0,-0.13544 0.371541,-0.46851 0.522629,-0.46851 0.07613,0 0.165129,-0.0432 0.197778,-0.096 0.03916,-0.0634 5.061389,-0.0961 14.754596,-0.0961 h 14.69523 l 0.235551,-0.25416 c 0.130508,-0.14082 0.235548,-0.37117 0.235548,-0.51654 0,-0.1443 0.06484,-0.31618 0.144081,-0.38195 0.07925,-0.0658 0.144082,-0.21705 0.144082,-0.33619 0,-0.11914 0.06484,-0.27042 0.144081,-0.33619 0.07925,-0.0658 0.144082,-0.22235 0.144082,-0.34795 0,-0.12561 0.0424,-0.22838 0.09423,-0.22838 0.05182,0 0.123314,-0.11886 0.158869,-0.26415 0.03556,-0.14528 0.09041,-0.28576 0.121899,-0.31217 0.0536,-0.045 0.302204,-0.54103 0.433242,-0.86449 0.0321,-0.0792 0.144846,-0.27376 0.250539,-0.43225 0.105693,-0.15848 0.218318,-0.3638 0.25028,-0.45625 0.03196,-0.0925 0.09629,-0.1681 0.142962,-0.1681 0.04667,0 0.08485,-0.0617 0.08485,-0.13722 0,-0.0755 0.05403,-0.19616 0.120068,-0.26821 0.140854,-0.15365 0.333894,-0.44741 0.427911,-0.65117 0.03656,-0.0792 0.166439,-0.25214 0.288609,-0.38421 0.12217,-0.13208 0.24618,-0.31578 0.27557,-0.40824 0.0294,-0.0924 0.0937,-0.16809 0.14302,-0.16809 0.0493,0 0.0896,-0.0648 0.0896,-0.14408 0,-0.0792 0.038,-0.14408 0.0844,-0.14408 0.0464,0 0.24809,-0.23774 0.44821,-0.5283 0.20012,-0.29056 0.39989,-0.5283 0.44394,-0.5283 0.044,0 0.0801,-0.0425 0.0801,-0.0945 0,-0.052 0.52077,-0.61845 1.15727,-1.25887 0.6365,-0.64042 1.14079,-1.21385 1.12064,-1.2743 -0.0272,-0.0818 -4.719289,-0.1222 -18.326981,-0.15794 -15.283966,-0.0401 -18.329823,-0.0698 -18.530488,-0.18028 -0.132075,-0.0727 -0.379786,-0.28885 -0.550471,-0.48027 -0.282906,-0.31726 -0.310497,-0.40428 -0.312177,-0.98462 -0.0013,-0.45047 0.04029,-0.67157 0.14224,-0.75618 0.07925,-0.0658 0.144082,-0.16863 0.144082,-0.22859 0,-0.06 0.196273,-0.22756 0.43616,-0.37245 l 0.43616,-0.26345 h 20.881041 c 18.432854,0 20.897934,-0.0169 21.025124,-0.14409 0.0792,-0.0792 0.22832,-0.14408 0.33129,-0.14408 0.10296,0 0.24101,-0.0648 0.30678,-0.14408 0.0658,-0.0792 0.20074,-0.14408 0.29992,-0.14408 0.0992,0 0.18035,-0.0384 0.18035,-0.0854 0,-0.0469 0.15129,-0.11375 0.33619,-0.14844 0.18491,-0.0347 0.33619,-0.10433 0.33619,-0.15477 0,-0.0504 0.10277,-0.0917 0.22838,-0.0917 0.1256,0 0.28218,-0.0648 0.34795,-0.14408 0.0658,-0.0793 0.21408,-0.14408 0.32959,-0.14408 0.11551,0 0.29392,-0.0635 0.39647,-0.14103 0.10255,-0.0776 0.30277,-0.1424 0.44494,-0.14408 0.14216,-0.002 0.28519,-0.0463 0.31784,-0.0991 0.0327,-0.0528 0.15407,-0.0963 0.26982,-0.0966 0.11575,-2.6e-4 0.33426,-0.0652 0.48558,-0.14408 0.15132,-0.0789 0.38906,-0.14375 0.5283,-0.14408 0.13925,-2.6e-4 0.37698,-0.0652 0.5283,-0.14408 0.15132,-0.0789 0.45389,-0.14487 0.67238,-0.14655 0.21849,-0.002 0.48116,-0.0665 0.58371,-0.14408 0.11866,-0.0897 0.40908,-0.14103 0.79876,-0.14103 0.33677,0 0.69143,-0.0423 0.78813,-0.0941 0.0967,-0.0517 1.0904,-0.12349 2.20822,-0.15941 1.90497,-0.0612 2.04111,-0.0777 2.1712,-0.26346 0.11955,-0.17069 0.13879,-2.23266 0.13879,-14.8731 V 92.231949 h 1.63292 1.63293 v 15.011791 15.01179 l 0.27897,0.1648 c 0.16364,0.0967 0.47801,0.16479 0.76043,0.16479 0.2648,0 0.49679,0.046 0.51554,0.10225 0.0188,0.0562 0.22767,0.12691 0.46426,0.15705 0.2366,0.0301 0.47341,0.0883 0.52624,0.12929 0.0528,0.041 0.25862,0.10487 0.45732,0.142 0.19869,0.0371 0.38495,0.10584 0.4139,0.15268 0.0289,0.0468 0.17149,0.0852 0.31677,0.0852 0.14527,0 0.34804,0.0635 0.45058,0.14103 0.10255,0.0776 0.2586,0.1424 0.34677,0.14408 0.0882,0.002 0.28268,0.0645 0.43224,0.13964 0.91153,0.45784 1.31953,0.63185 1.48148,0.63185 0.10079,0 0.18325,0.033 0.18325,0.0734 0,0.0404 0.22692,0.17936 0.50428,0.30888 0.27736,0.12953 0.5259,0.25864 0.55231,0.28692 0.0264,0.0283 0.24254,0.15025 0.48028,0.27106 0.52392,0.26624 0.76625,0.41396 0.93933,0.57262 0.072,0.066 0.17301,0.12006 0.22437,0.12006 0.0514,0 0.20992,0.10807 0.35236,0.24014 0.14244,0.13207 0.30309,0.24014 0.35699,0.24014 0.0539,0 0.20564,0.0973 0.33718,0.21612 0.13153,0.11886 0.40095,0.32418 0.5987,0.45626 0.19775,0.13207 0.35984,0.27255 0.3602,0.31217 2.7e-4,0.0396 0.046,0.072 0.1013,0.072 0.0554,0 0.19583,0.0976 0.31218,0.21697 0.11634,0.11934 0.46898,0.43271 0.78363,0.6964 1.13585,0.95184 2.43063,2.38889 3.59083,3.9854 0.83233,1.14533 0.92912,1.28792 1.04326,1.53687 0.0363,0.0793 0.1225,0.2012 0.19149,0.27102 0.069,0.0698 0.12545,0.18867 0.12545,0.26415 0,0.0755 0.0432,0.13721 0.096,0.13721 0.0528,0 0.096,0.0596 0.096,0.13232 0,0.0728 0.0648,0.18613 0.14409,0.2519 0.0792,0.0658 0.14408,0.20074 0.14408,0.29992 0,0.0992 0.0324,0.18036 0.072,0.18038 0.0755,2e-5 0.63532,1.13994 0.74299,1.51283 0.0343,0.11887 0.10271,0.21612 0.15198,0.21612 0.0493,0 0.0896,0.10277 0.0896,0.22838 0,0.1256 0.0648,0.28218 0.14409,0.34795 0.0792,0.0658 0.14408,0.19579 0.14408,0.28894 0,0.0931 0.0646,0.29318 0.14349,0.4445 0.0789,0.15132 0.14376,0.34822 0.14408,0.43755 2.7e-4,0.0893 0.0438,0.18914 0.0967,0.22179 0.0528,0.0327 0.096,0.17823 0.096,0.32351 0,0.14527 0.0635,0.34804 0.14103,0.45059 0.0776,0.10254 0.1424,0.31867 0.14408,0.48027 0.002,0.1616 0.0665,0.37772 0.14408,0.48027 0.0776,0.10255 0.1424,0.38312 0.14408,0.6235 0.002,0.24037 0.0434,0.47811 0.0927,0.5283 0.11838,0.1205 0.28495,1.18209 0.3923,2.50023 0.0477,0.58532 0.13163,1.18247 0.18658,1.327 0.12895,0.33916 0.13037,2.89551 0.002,3.13585 -0.054,0.10089 -0.12473,0.67077 -0.15719,1.26641 -0.0325,0.59564 -0.0904,1.1262 -0.12878,1.17903 -0.0384,0.0528 -0.0976,0.37512 -0.13157,0.7162 -0.034,0.34108 -0.10476,0.66311 -0.15727,0.71561 -0.0525,0.0525 -0.0954,0.29764 -0.0954,0.54475 0,0.2822 -0.0536,0.49378 -0.14408,0.56888 -0.0828,0.0687 -0.14409,0.27814 -0.14409,0.49203 0,0.20485 -0.0427,0.37246 -0.0949,0.37246 -0.0522,0 -0.12271,0.17385 -0.15669,0.38635 -0.034,0.21248 -0.0993,0.40955 -0.14522,0.43791 -0.0459,0.0284 -0.0837,0.12466 -0.084,0.21399 -2.6e-4,0.0893 -0.0652,0.28624 -0.14408,0.43756 -0.0789,0.15132 -0.14349,0.35972 -0.14349,0.46312 0,0.10339 -0.0648,0.25282 -0.14408,0.33207 -0.29895,0.29895 -0.17733,0.66781 0.42225,1.28056 0.31148,0.31833 0.61405,0.57877 0.67238,0.57877 0.0583,0 0.10605,0.0466 0.10605,0.10364 0,0.13496 0.818,0.95296 0.95296,0.95296 0.057,0 0.10363,0.0466 0.10363,0.10364 0,0.13496 0.81801,0.95296 0.95296,0.95296 0.057,0 0.10364,0.043 0.10364,0.0955 0,0.12488 12.74695,12.87182 12.87182,12.87182 0.0525,0 0.0955,0.0466 0.0955,0.10364 0,0.13496 0.818,0.95296 0.95296,0.95296 0.057,0 0.10363,0.0466 0.10363,0.10364 0,0.13496 0.818,0.95296 0.95297,0.95296 0.057,0 0.10363,0.0483 0.10363,0.1073 0,0.059 0.16209,0.26523 0.36021,0.45826 0.19811,0.19303 0.51037,0.54458 0.69391,0.78121 0.18353,0.23663 0.36142,0.45185 0.39529,0.47826 0.0339,0.0264 0.0919,0.14528 0.12901,0.26415 0.0371,0.11887 0.10777,0.21612 0.15703,0.21612 0.0493,0 0.0896,0.0596 0.0896,0.13232 0,0.0728 0.0648,0.18613 0.14409,0.2519 0.0792,0.0658 0.14408,0.20073 0.14408,0.29992 0,0.0992 0.0413,0.18035 0.0917,0.18035 0.0504,0 0.12018,0.15177 0.15497,0.33726 0.0348,0.18548 0.10159,0.36093 0.14844,0.38988 0.0468,0.0289 0.0852,0.1192 0.0852,0.20054 0,0.0814 0.0612,0.28412 0.13591,0.4506 0.0748,0.16647 0.15572,0.53858 0.17993,0.82691 0.0242,0.28833 0.0927,0.54048 0.15225,0.56032 0.17326,0.0577 0.14348,2.23584 -0.0352,2.57854 -0.0789,0.15132 -0.14377,0.43228 -0.14408,0.62436 -2.7e-4,0.19207 -0.0652,0.47303 -0.14408,0.62435 -0.0789,0.15132 -0.14377,0.35136 -0.14409,0.44453 -2.6e-4,0.0932 -0.0387,0.24445 -0.0852,0.33619 -0.0465,0.0917 -0.17848,0.3613 -0.29323,0.59903 -0.30947,0.64123 -0.69615,1.29236 -0.78911,1.32875 -0.045,0.0176 -0.0818,0.0672 -0.0818,0.11019 0,0.28323 -1.84275,2.07645 -2.41067,2.34587 -0.10053,0.0477 -0.18279,0.12335 -0.18279,0.1681 0,0.0448 -0.0864,0.0814 -0.19211,0.0814 -0.10566,0 -0.19211,0.0424 -0.19211,0.0942 0,0.0518 -0.10806,0.12136 -0.24014,0.15451 -0.13207,0.0332 -0.24013,0.0988 -0.24013,0.14591 0,0.0471 -0.0998,0.0856 -0.22178,0.0856 -0.12197,0 -0.30568,0.0635 -0.40823,0.14102 -0.10255,0.0776 -0.27545,0.14241 -0.38422,0.14409 -0.10876,0.002 -0.28166,0.0665 -0.38422,0.14408 -0.10255,0.0776 -0.38312,0.1424 -0.6235,0.14408 -0.24037,0.002 -0.48296,0.049 -0.53907,0.10508 -0.10907,0.10907 -1.97002,0.19912 -2.52986,0.12243 z m 2.07083,-3.34318 c 0.10254,-0.0776 0.33431,-0.1424 0.51505,-0.14408 0.31718,-0.003 1.55917,-0.53274 1.6245,-0.69296 0.0176,-0.0432 0.0934,-0.0785 0.16843,-0.0785 0.188,0 1.67261,-1.48983 1.67261,-1.67849 0,-0.0839 0.0648,-0.17745 0.14408,-0.20786 0.0793,-0.0304 0.14408,-0.15872 0.14408,-0.28515 0,-0.12642 0.0424,-0.22986 0.0942,-0.22986 0.0518,0 0.12263,-0.11886 0.15733,-0.26415 0.0347,-0.14528 0.0965,-0.30737 0.13741,-0.3602 0.23725,-0.30671 0.48272,-2.63851 0.3014,-2.86309 -0.0509,-0.063 -0.12303,-0.34152 -0.16032,-0.61888 -0.0373,-0.27735 -0.10695,-0.50428 -0.15483,-0.50428 -0.0479,0 -0.087,-0.10277 -0.087,-0.22838 0,-0.1256 -0.0648,-0.28218 -0.14408,-0.34795 -0.0793,-0.0658 -0.14409,-0.20209 -0.14409,-0.30294 0,-0.10085 -0.0606,-0.2066 -0.13462,-0.23502 -0.074,-0.0284 -0.15922,-0.12431 -0.18931,-0.2131 -0.0301,-0.0888 -0.10999,-0.24433 -0.17757,-0.34561 -0.1759,-0.26368 -18.69642,-18.78691 -18.78215,-18.78492 -0.11878,0.003 -0.44191,0.39458 -0.90961,1.10297 -0.24417,0.36981 -0.52322,0.75883 -0.62013,0.86449 -0.36563,0.39864 -0.79883,0.99215 -0.79883,1.09443 0,0.0584 -0.0648,0.10625 -0.14408,0.10625 -0.0793,0 -0.14408,0.0445 -0.14408,0.0989 0,0.10955 -2.39046,2.49869 -2.88035,2.87876 -0.17024,0.13208 -0.36676,0.29417 -0.43671,0.3602 -0.0699,0.066 -0.15394,0.12007 -0.18665,0.12007 -0.0327,0 -0.15498,0.0973 -0.2717,0.21612 -0.11672,0.11887 -0.28333,0.25935 -0.37023,0.31218 -0.4798,0.29169 -1.5127,1.02623 -1.61299,1.14707 -0.0931,0.11222 -0.0812,0.18911 0.0595,0.38219 0.0968,0.13294 0.23007,0.24307 0.29611,0.24473 0.066,0.002 0.12007,0.0451 0.12007,0.0965 0,0.0514 0.19565,0.28918 0.43477,0.5283 0.23913,0.23913 0.47686,0.43477 0.5283,0.43477 0.0514,0 0.0935,0.0421 0.0935,0.0935 0,0.0514 0.19564,0.28918 0.43477,0.5283 0.23912,0.23913 0.47686,0.43477 0.5283,0.43477 0.0514,0 0.0935,0.0421 0.0935,0.0935 0,0.0514 0.19565,0.28917 0.43478,0.5283 0.23912,0.23912 0.47686,0.43477 0.5283,0.43477 0.0514,0 0.0935,0.0421 0.0935,0.0935 0,0.0514 0.19565,0.28917 0.43477,0.5283 0.23913,0.23912 0.47686,0.43477 0.5283,0.43477 0.0514,0 0.0935,0.0648 0.0935,0.14408 0,0.0792 0.0648,0.14408 0.14408,0.14408 0.0793,0 0.14408,0.0399 0.14408,0.0887 0,0.0488 0.133,0.22166 0.29555,0.38421 0.16256,0.16256 0.33546,0.29555 0.38422,0.29555 0.0488,0 0.0887,0.0648 0.0887,0.14409 0,0.0792 0.0648,0.14408 0.14408,0.14408 0.0792,0 0.14408,0.0399 0.14408,0.0887 0,0.0488 0.133,0.22167 0.29555,0.38422 0.16255,0.16255 0.33545,0.29555 0.38422,0.29555 0.0488,0 0.0887,0.0648 0.0887,0.14408 0,0.0793 0.0648,0.14409 0.14409,0.14409 0.0792,0 0.14408,0.0399 0.14408,0.0887 0,0.0488 0.133,0.22167 0.29555,0.38422 0.16255,0.16255 0.33545,0.29555 0.38422,0.29555 0.0488,0 0.0887,0.0648 0.0887,0.14408 0,0.0793 0.0648,0.14408 0.14408,0.14408 0.0793,0 0.14408,0.0399 0.14408,0.0887 0,0.0488 0.13301,0.22166 0.29556,0.38422 0.16255,0.16255 0.33545,0.29555 0.38421,0.29555 0.0488,0 0.0887,0.0648 0.0887,0.14408 0,0.0792 0.0648,0.14408 0.14408,0.14408 0.0793,0 0.14408,0.0399 0.14408,0.0887 0,0.0488 0.133,0.22166 0.29556,0.38422 0.16255,0.16255 0.33545,0.29555 0.38421,0.29555 0.0488,0 0.0887,0.0648 0.0887,0.14408 0,0.0792 0.0648,0.14408 0.14408,0.14408 0.0792,0 0.14408,0.0399 0.14408,0.0887 0,0.11535 0.56441,0.67976 0.67977,0.67976 0.0488,0 0.0887,0.0648 0.0887,0.14408 0,0.0793 0.0648,0.14409 0.14409,0.14409 0.0792,0 0.14408,0.0399 0.14408,0.0887 0,0.11536 0.56441,0.67977 0.67977,0.67977 0.0488,0 0.0887,0.0648 0.0887,0.14408 0,0.0793 0.0648,0.14408 0.14408,0.14408 0.0793,0 0.14409,0.0417 0.14409,0.0927 0,0.1255 0.54486,0.67569 0.66914,0.67569 0.0546,0 0.0993,0.0648 0.0993,0.14408 0,0.0792 0.0648,0.14408 0.14408,0.14408 0.0793,0 0.14408,0.0421 0.14408,0.0935 0,0.0514 0.19565,0.28917 0.43478,0.5283 0.23912,0.23912 0.47686,0.43477 0.5283,0.43477 0.0514,0 0.0935,0.0421 0.0935,0.0935 0,0.12185 0.84122,0.96307 0.96307,0.96307 0.0514,0 0.0935,0.0421 0.0935,0.0935 0,0.12186 0.84122,0.96307 0.96307,0.96307 0.0514,0 0.0935,0.0421 0.0935,0.0935 0,0.12185 0.84122,0.96307 0.96307,0.96307 0.0514,0 0.0935,0.0453 0.0935,0.10064 0,0.23161 1.35518,1.3428 1.96912,1.61459 0.15849,0.0702 0.41054,0.18842 0.56009,0.26277 0.14957,0.0744 0.39317,0.1352 0.54133,0.1352 0.14818,0 0.39321,0.0646 0.54454,0.14348 0.37672,0.19648 1.8475,0.19903 2.10582,0.004 z m -35.44971,-19.59621 c 0.31698,-0.0765 0.93038,-0.1407 1.3631,-0.14258 0.43273,-0.002 0.80972,-0.0405 0.83775,-0.0859 0.028,-0.0454 0.31654,-0.10655 0.64113,-0.13598 0.32459,-0.0294 0.63704,-0.10038 0.69432,-0.15767 0.0573,-0.0573 0.26015,-0.10416 0.4508,-0.10416 0.19066,0 0.43056,-0.0635 0.53311,-0.14102 0.10255,-0.0776 0.31612,-0.14378 0.47461,-0.14714 0.15849,-0.003 0.37207,-0.0696 0.47462,-0.14714 0.10255,-0.0776 0.2837,-0.14102 0.40256,-0.14102 0.11886,0 0.24283,-0.0432 0.27547,-0.0961 0.0327,-0.0528 0.12593,-0.096 0.20728,-0.096 0.17442,0 0.54013,-0.15517 1.71865,-0.72922 0.47813,-0.23289 0.92118,-0.42343 0.98455,-0.42343 0.0634,0 0.11524,-0.0432 0.11524,-0.0961 0,-0.0528 0.0595,-0.096 0.13232,-0.096 0.0728,0 0.18613,-0.0648 0.25189,-0.14409 0.0658,-0.0792 0.19611,-0.14408 0.28965,-0.14408 0.0935,0 0.19495,-0.0648 0.22536,-0.14408 0.0304,-0.0792 0.12331,-0.14408 0.20644,-0.14408 0.14138,0 0.23791,-0.0608 0.57176,-0.3602 0.0736,-0.066 0.17057,-0.12007 0.21539,-0.12007 0.0448,0 0.22349,-0.12967 0.39701,-0.28816 0.17353,-0.15849 0.33733,-0.28817 0.36401,-0.28817 0.0888,0 0.75247,-0.51515 1.01483,-0.78776 0.1423,-0.14786 0.29466,-0.26883 0.33857,-0.26883 0.0728,0 1.50318,-1.44339 2.33962,-2.36083 0.42839,-0.46987 1.37805,-1.76019 1.46142,-1.98563 0.0342,-0.0925 0.10673,-0.1681 0.16122,-0.1681 0.0545,0 0.0991,-0.0648 0.0991,-0.14408 0,-0.0792 0.0424,-0.14408 0.0942,-0.14408 0.0518,0 0.12134,-0.10806 0.15449,-0.24014 0.0332,-0.13207 0.088,-0.24054 0.1219,-0.24104 0.0339,-5.3e-4 0.14696,-0.19501 0.25125,-0.43225 0.10429,-0.23723 0.22025,-0.43133 0.25767,-0.43133 0.0374,0 0.0967,-0.0973 0.13176,-0.21612 0.10073,-0.34175 0.62744,-1.40906 0.72517,-1.46947 0.0487,-0.0301 0.0886,-0.17722 0.0886,-0.32694 0,-0.15336 0.0629,-0.29636 0.14408,-0.32751 0.0793,-0.0304 0.14409,-0.13816 0.14409,-0.23944 0,-0.10127 0.0646,-0.30795 0.14349,-0.45927 0.0789,-0.15132 0.14375,-0.36983 0.14408,-0.48558 2.6e-4,-0.11575 0.0438,-0.23717 0.0966,-0.26982 0.0528,-0.0327 0.0961,-0.17822 0.0961,-0.3235 0,-0.14527 0.0635,-0.34804 0.14103,-0.45059 0.0776,-0.10255 0.14377,-0.35935 0.14713,-0.57067 0.003,-0.21132 0.0696,-0.46812 0.14714,-0.57067 0.0813,-0.10744 0.14102,-0.3944 0.14102,-0.67718 0,-0.2699 0.0477,-0.53842 0.10598,-0.59671 0.1357,-0.1357 0.30741,-2.23481 0.30483,-3.72659 -0.002,-1.41541 -0.16487,-3.37205 -0.29319,-3.53189 -0.0522,-0.065 -0.11415,-0.39665 -0.13772,-0.73701 -0.0244,-0.35252 -0.0913,-0.63499 -0.15546,-0.65637 -0.064,-0.0213 -0.11392,-0.23094 -0.11565,-0.48579 -0.002,-0.24654 -0.0665,-0.53216 -0.14408,-0.63471 -0.0776,-0.10255 -0.14103,-0.32948 -0.14103,-0.50428 0,-0.17481 -0.0377,-0.31783 -0.0838,-0.31783 -0.0461,0 -0.11142,-0.1729 -0.14522,-0.38422 -0.0338,-0.21132 -0.10415,-0.38422 -0.15636,-0.38422 -0.0522,0 -0.0949,-0.12438 -0.0949,-0.2764 0,-0.15202 -0.0648,-0.33021 -0.14409,-0.39598 -0.0792,-0.0658 -0.14408,-0.21705 -0.14408,-0.33619 0,-0.11914 -0.0648,-0.27042 -0.14408,-0.33619 -0.0792,-0.0658 -0.14408,-0.16459 -0.14408,-0.21962 0,-0.17035 -0.32074,-0.83698 -0.4027,-0.83698 -0.0427,0 -0.0776,-0.0834 -0.0776,-0.18524 0,-0.10189 -0.0648,-0.25009 -0.14408,-0.32933 -0.0793,-0.0793 -0.14409,-0.21337 -0.14409,-0.29804 0,-0.0847 -0.0648,-0.17884 -0.14408,-0.20925 -0.0792,-0.0304 -0.14408,-0.12223 -0.14408,-0.20404 0,-0.0818 -0.10806,-0.29043 -0.24013,-0.46359 -0.13208,-0.17316 -0.24014,-0.34391 -0.24014,-0.37946 0,-0.0355 -0.12967,-0.22835 -0.28816,-0.42846 -0.15849,-0.20011 -0.28817,-0.41164 -0.28817,-0.47008 0,-0.0584 -0.0446,-0.10625 -0.0991,-0.10625 -0.0545,0 -0.12691,-0.0756 -0.16094,-0.16809 -0.034,-0.0924 -0.16235,-0.26329 -0.28515,-0.37963 -0.1228,-0.11635 -0.22328,-0.24801 -0.22328,-0.29259 0,-0.0446 -0.23773,-0.33448 -0.5283,-0.64421 -0.29056,-0.30974 -0.5283,-0.59951 -0.5283,-0.64394 0,-0.0444 -0.0648,-0.0808 -0.14408,-0.0808 -0.0792,0 -0.14408,-0.0648 -0.14408,-0.14408 0,-0.0792 -0.0324,-0.14479 -0.072,-0.14565 -0.0396,-8e-4 -0.46106,-0.37158 -0.93653,-0.8238 -0.47547,-0.45223 -0.98336,-0.88488 -1.12864,-0.96144 -0.14528,-0.0766 -0.26423,-0.17052 -0.26433,-0.20878 -1.1e-4,-0.0383 -0.22704,-0.22086 -0.50429,-0.40577 -0.27725,-0.1849 -0.51851,-0.3686 -0.53612,-0.40823 -0.0176,-0.0396 -0.0932,-0.072 -0.16809,-0.072 -0.0748,0 -0.13608,-0.0424 -0.13608,-0.0942 0,-0.0518 -0.10493,-0.12056 -0.23319,-0.15275 -0.12825,-0.0322 -0.25656,-0.11946 -0.28514,-0.19394 -0.0286,-0.0745 -0.0974,-0.13542 -0.15294,-0.13542 -0.0555,0 -0.27216,-0.10806 -0.48138,-0.24013 -0.20922,-0.13208 -0.44147,-0.24014 -0.51611,-0.24014 -0.0747,0 -0.1606,-0.0648 -0.19101,-0.14408 -0.0304,-0.0792 -0.10586,-0.14408 -0.16768,-0.14408 -0.0618,0 -0.47294,-0.1729 -0.91361,-0.38422 -0.44066,-0.21132 -0.88323,-0.38421 -0.98348,-0.38421 -0.10025,0 -0.23608,-0.0648 -0.30185,-0.14409 -0.0658,-0.0792 -0.21154,-0.14545 -0.32394,-0.14713 -0.1124,-0.002 -0.28826,-0.0665 -0.39081,-0.14408 -0.10255,-0.0776 -0.28131,-0.14103 -0.39725,-0.14103 -0.11594,0 -0.33461,-0.0646 -0.48593,-0.14349 -0.15132,-0.0789 -0.39145,-0.14376 -0.53361,-0.14408 -0.14216,-2.7e-4 -0.28519,-0.0438 -0.31785,-0.0967 -0.0326,-0.0528 -0.24051,-0.0976 -0.46192,-0.0994 -0.22141,-0.002 -0.51063,-0.0652 -0.6427,-0.14068 -0.15202,-0.0869 -0.5255,-0.13853 -1.01783,-0.14068 -0.5092,-0.002 -0.88236,-0.0556 -1.08088,-0.15466 -0.25777,-0.12859 -0.67661,-0.14658 -2.79569,-0.12007 -1.83071,0.0229 -2.52432,0.0631 -2.6124,0.15126 -0.0686,0.0687 -0.36853,0.12152 -0.70104,0.12347 -0.32146,0.002 -0.68843,0.0647 -0.82127,0.14068 -0.13207,0.0755 -0.42129,0.1388 -0.64269,0.14068 -0.22141,0.002 -0.42928,0.0466 -0.46193,0.0994 -0.0327,0.0528 -0.17568,0.0963 -0.31785,0.0967 -0.14216,2.6e-4 -0.38229,0.0652 -0.53361,0.14408 -0.15132,0.0789 -0.37516,0.14349 -0.49742,0.14349 -0.12226,0 -0.28713,0.0648 -0.36638,0.14408 -0.0792,0.0793 -0.25214,0.14408 -0.38421,0.14408 -0.13208,0 -0.30498,0.0648 -0.38422,0.14408 -0.0793,0.0793 -0.21259,0.14409 -0.29633,0.14409 -0.0837,0 -0.2273,0.0406 -0.31904,0.0902 -0.0917,0.0496 -0.50178,0.24574 -0.91121,0.43585 -0.40943,0.19012 -0.74442,0.38728 -0.74442,0.43812 0,0.0508 -0.0613,0.0924 -0.1363,0.0924 -0.12598,0 -0.71384,0.27406 -0.82417,0.38422 -0.0852,0.085 -0.42616,0.28596 -0.64844,0.38207 -0.11887,0.0514 -0.21612,0.13774 -0.21612,0.19188 0,0.0541 -0.0757,0.0991 -0.1681,0.1 -0.0924,7.9e-4 -0.31938,0.13581 -0.50428,0.29992 -0.18491,0.16412 -0.44424,0.36875 -0.57629,0.45473 -0.28161,0.18336 -0.60289,0.44607 -0.95473,0.78068 -0.13888,0.13207 -0.4445,0.39142 -0.67916,0.57633 -0.44663,0.35193 -1.36074,1.28455 -1.74173,1.777 -0.12262,0.15849 -0.25616,0.30257 -0.29674,0.32018 -0.0406,0.0176 -0.0738,0.0701 -0.0738,0.11676 0,0.0466 -0.12572,0.21335 -0.27938,0.37054 -0.15366,0.15719 -0.35749,0.41803 -0.45296,0.57964 -0.0955,0.16161 -0.20747,0.29383 -0.24891,0.29383 -0.0414,0 -0.0754,0.0602 -0.0754,0.13381 0,0.0736 -0.0648,0.15868 -0.14408,0.18909 -0.0792,0.0304 -0.14408,0.11926 -0.14408,0.19744 0,0.0782 -0.10806,0.25875 -0.24014,0.40126 -0.13207,0.14251 -0.24013,0.31234 -0.24013,0.3774 0,0.0651 -0.0648,0.1721 -0.14408,0.23787 -0.0793,0.0658 -0.14409,0.20074 -0.14409,0.29993 0,0.0992 -0.0405,0.18034 -0.09,0.18034 -0.10731,0 -0.96661,1.72456 -0.96661,1.93992 0,0.0824 -0.0648,0.20357 -0.14408,0.26933 -0.0793,0.0658 -0.14409,0.20382 -0.14409,0.30679 0,0.10296 -0.0648,0.25204 -0.14408,0.33129 -0.0792,0.0793 -0.14408,0.27067 -0.14408,0.42538 0,0.15472 -0.0406,0.2813 -0.0902,0.2813 -0.0496,0 -0.11941,0.19505 -0.15516,0.43343 -0.03575,0.23838 -0.103236,0.45706 -0.14997,0.48594 -0.04673,0.0289 -0.08497,0.19299 -0.08497,0.36468 0,0.17169 -0.06346,0.39607 -0.141025,0.49862 -0.07757,0.10254 -0.142401,0.3436 -0.144082,0.53567 -0.0016,0.19207 -0.06762,0.47303 -0.146544,0.62435 -0.07892,0.15133 -0.143756,0.51503 -0.144082,0.80824 -2.64e-4,0.29763 -0.05363,0.58613 -0.12066,0.65317 -0.0907,0.0907 -0.120068,0.82254 -0.120068,2.99209 0,2.16955 0.02937,2.90139 0.120068,2.99209 0.06703,0.067 0.120329,0.35553 0.12066,0.65317 2.65e-4,0.29321 0.06516,0.65691 0.144082,0.80823 0.07892,0.15132 0.143488,0.45941 0.143488,0.68463 0,0.24683 0.05724,0.45701 0.144082,0.52908 0.08204,0.0681 0.144081,0.27752 0.144081,0.48637 0,0.20173 0.04322,0.3935 0.09605,0.42615 0.05283,0.0326 0.09632,0.13246 0.09665,0.22179 2.64e-4,0.0893 0.06516,0.28624 0.14408,0.43756 0.0789,0.15132 0.14349,0.35355 0.14349,0.44939 0,0.0958 0.0648,0.23911 0.14408,0.31835 0.0793,0.0793 0.14408,0.24994 0.14408,0.37932 0,0.12938 0.0648,0.28904 0.14409,0.35481 0.0792,0.0658 0.14408,0.16536 0.14408,0.22131 0,0.11193 0.86163,1.91089 0.95215,1.98794 0.0625,0.0532 0.20961,0.30756 0.49933,0.8634 0.1058,0.20297 0.28715,0.4738 0.40302,0.60186 0.11587,0.12806 0.2938,0.38026 0.39541,0.56045 0.10161,0.18019 0.28531,0.42281 0.40823,0.53916 0.12292,0.11634 0.22349,0.2398 0.22349,0.27434 0,0.21594 2.41145,2.74223 3.15788,3.30827 0.17417,0.13207 0.36696,0.28471 0.42844,0.33919 0.37049,0.32832 1.31419,1.00557 1.40121,1.00557 0.0568,0 0.10335,0.0334 0.10335,0.0742 0,0.0408 0.16209,0.15958 0.3602,0.26392 0.19811,0.10434 0.41732,0.24384 0.48713,0.31001 0.0698,0.0662 0.18868,0.12029 0.26415,0.12029 0.0755,0 0.13722,0.035 0.13722,0.0777 0,0.0427 0.2373,0.18321 0.52733,0.31217 0.29003,0.12896 0.52776,0.2669 0.5283,0.30652 5.3e-4,0.0396 0.0821,0.072 0.18132,0.072 0.0992,0 0.23415,0.0648 0.29992,0.14408 0.0658,0.0792 0.22235,0.14408 0.34795,0.14408 0.12561,0 0.22838,0.0424 0.22838,0.0942 0,0.0518 0.11599,0.12333 0.25775,0.15891 0.14176,0.0356 0.36869,0.12259 0.50428,0.19335 0.1356,0.0708 0.32218,0.12892 0.41463,0.12925 0.0925,2.6e-4 0.1681,0.0438 0.1681,0.0966 0,0.0528 0.12141,0.0961 0.2698,0.0961 0.1484,0 0.35371,0.0635 0.45626,0.14102 0.10255,0.0776 0.33002,0.14241 0.50549,0.14409 0.17547,0.002 0.38388,0.0679 0.46312,0.14713 0.0793,0.0793 0.30525,0.14408 0.50223,0.14408 0.19698,0 0.40501,0.0469 0.4623,0.10416 0.0573,0.0573 0.36973,0.12824 0.69432,0.15767 0.32459,0.0294 0.6131,0.0906 0.64113,0.13598 0.028,0.0454 0.42663,0.0831 0.88578,0.0839 0.45914,7.9e-4 1.02931,0.0627 1.26705,0.13766 0.574,0.18087 2.28901,0.18477 3.02571,0.007 z"
       id="path1" /><path
       style="display:inline;fill:#ffffff;stroke-width:0.249045;paint-order:fill markers stroke"
       d="m 67.313365,99.484054 c -0.06577,-0.07925 -0.163359,-0.144082 -0.216868,-0.144082 -0.08431,0 -0.319437,-0.232947 -0.650351,-0.644313 -0.153541,-0.190868 -0.114922,-1.235324 0.05076,-1.372828 0.07925,-0.06577 0.144082,-0.157509 0.144082,-0.203869 0,-0.125608 0.366204,-0.468053 0.504285,-0.471564 0.06604,-0.0016 0.203973,-0.06652 0.306523,-0.144082 0.282429,-0.213622 45.450734,-0.213622 45.733164,0 0.10255,0.07756 0.25249,0.142401 0.33321,0.144082 0.17385,0.0036 0.43224,0.285123 0.52237,0.56911 0.0353,0.111308 0.10454,0.202378 0.15381,0.202378 0.0493,0 0.0896,0.259347 0.0896,0.576326 0,0.320182 -0.0427,0.576326 -0.096,0.576326 -0.0528,0 -0.0961,0.05811 -0.0961,0.129143 0,0.164028 -0.40412,0.639291 -0.5436,0.639291 -0.0579,0 -0.15906,0.06484 -0.22483,0.144082 -0.10568,0.127336 -2.77958,0.144081 -23.005009,0.144081 -20.225427,0 -22.899333,-0.01675 -23.005013,-0.144081 z"
       id="path2" /><path
       style="display:inline;fill:#ffffff;stroke-width:0.249045;paint-order:fill markers stroke"
       d="m 67.054703,85.048837 c -0.221509,-0.138782 -0.427651,-0.351557 -0.458089,-0.472834 -0.03044,-0.121277 -0.09775,-0.220507 -0.149569,-0.220507 -0.159668,0 -0.114879,-1.208039 0.04986,-1.34476 0.07925,-0.06577 0.144082,-0.157509 0.144082,-0.20387 0,-0.135445 0.371541,-0.468511 0.522631,-0.468511 0.07613,0 0.165127,-0.04323 0.197776,-0.09605 0.0822,-0.133003 27.615621,-0.133003 27.615621,0 0,0.05283 0.04529,0.09605 0.100642,0.09605 0.15322,0 0.583554,0.494938 0.689009,0.792449 0.0515,0.145282 0.132628,0.264149 0.18029,0.264149 0.162507,0 0.08711,0.428601 -0.160279,0.911138 -0.144169,0.281196 -0.404545,0.591584 -0.625637,0.745799 l -0.378698,0.26415 -13.662445,-0.0074 -13.662448,-0.0074 z"
       id="path3" /><path
       style="display:inline;fill:#ffffff;stroke-width:0.249045;paint-order:fill markers stroke"
       d="m 67.313365,113.79615 c -0.06577,-0.0793 -0.157509,-0.14408 -0.203869,-0.14408 -0.115364,0 -0.421481,-0.31522 -0.496848,-0.51162 -0.03393,-0.0884 -0.10627,-0.16076 -0.160756,-0.16076 -0.173243,0 -0.118268,-1.12981 0.06902,-1.4186 0.246256,-0.3797 0.48442,-0.59854 0.651383,-0.59854 0.0809,0 0.171974,-0.0648 0.202385,-0.14409 0.04893,-0.12751 2.687053,-0.14408 22.943693,-0.14408 20.256637,0 22.894757,0.0166 22.943687,0.14408 0.0304,0.0793 0.13349,0.14409 0.22907,0.14409 0.19676,0 0.45379,0.26482 0.5494,0.56605 0.0353,0.11131 0.10454,0.20238 0.15382,0.20238 0.0493,0 0.0896,0.25935 0.0896,0.57633 0,0.31698 -0.0403,0.57632 -0.0896,0.57632 -0.0493,0 -0.11849,0.0911 -0.15381,0.20238 -0.0933,0.29389 -0.35105,0.56606 -0.53611,0.56606 -0.0883,0 -0.18537,0.0648 -0.21577,0.14408 -0.0489,0.12752 -2.68837,0.14408 -22.95551,0.14408 -20.238564,0 -22.91411,-0.0168 -23.01979,-0.14408 z"
       id="path4" /><path
       style="display:inline;fill:#ffffff;stroke-width:0.249045;paint-order:fill markers stroke"
       d="m 55.018411,79.215288 c 0,-10.234726 0.02566,-13.062577 0.120068,-13.231484 0.188907,-0.337984 0.673446,-0.839174 0.811291,-0.839174 0.06888,0 0.125238,-0.04323 0.125238,-0.09605 0,-0.154694 46.818712,-0.130816 47.078872,0.02402 0.34346,0.204409 22.27236,22.170157 22.27236,22.309788 0,0.07237 0.0432,0.15829 0.096,0.190939 0.0597,0.0369 0.0961,0.929524 0.0961,2.359001 v 2.299634 h -1.58489 -1.5849 v -1.148143 -1.148146 l -0.31217,-0.147193 c -0.27311,-0.128768 -1.56956,-0.150374 -10.35724,-0.172601 l -10.04506,-0.0254 -0.34589,-0.288163 c -0.19568,-0.163021 -0.3489,-0.379945 -0.35282,-0.499513 -0.004,-0.116242 -0.0716,-0.247523 -0.15057,-0.291732 -0.12582,-0.07041 -0.14667,-1.336886 -0.1681,-10.210546 l -0.0244,-10.130162 -21.121855,-0.02424 c -15.532947,-0.01783 -21.156295,0.0044 -21.252021,0.0838 -0.108246,0.08984 -0.13017,2.120151 -0.13017,12.055033 V 92.23196 h -1.584896 -1.584897 z m 64.720259,7.108407 c 0.0385,-0.26833 -15.14179,-15.449611 -15.49317,-15.494225 l -0.23938,-0.03039 v 7.75218 c 0,7.27025 0.0105,7.760131 0.1681,7.880123 0.1373,0.104507 1.57569,0.124041 7.85244,0.106642 7.61518,-0.02111 7.68459,-0.02304 7.71201,-0.214325 z"
       id="path5"
       inkscape:export-filename="LupaEContrato.png"
       inkscape:export-xdpi="96"
       inkscape:export-ydpi="96" /></g></svg>
