<?xml version="1.0" encoding="UTF-8" standalone="no"?>
<!-- Created with Inkscape (http://www.inkscape.org/) -->

<svg
   width="70.590836mm"
   height="77.443825mm"
   viewBox="0 0 70.590836 77.443825"
   version="1.1"
   id="svg1"
   xml:space="preserve"
   inkscape:version="1.4.2 (f4327f4, 2025-05-13)"
   sodipodi:docname="Grafico.svg"
   xmlns:inkscape="http://www.inkscape.org/namespaces/inkscape"
   xmlns:sodipodi="http://sodipodi.sourceforge.net/DTD/sodipodi-0.dtd"
   xmlns="http://www.w3.org/2000/svg"
   xmlns:svg="http://www.w3.org/2000/svg"><sodipodi:namedview
     id="namedview1"
     pagecolor="#ffffff"
     bordercolor="#000000"
     borderopacity="0.25"
     inkscape:showpageshadow="2"
     inkscape:pageopacity="0.0"
     inkscape:pagecheckerboard="0"
     inkscape:deskcolor="#d1d1d1"
     inkscape:document-units="mm"
     inkscape:zoom="0.97386896"
     inkscape:cx="347.06928"
     inkscape:cy="449.23908"
     inkscape:window-width="1920"
     inkscape:window-height="991"
     inkscape:window-x="-9"
     inkscape:window-y="-9"
     inkscape:window-maximized="1"
     inkscape:current-layer="layer1"><inkscape:page
       x="0"
       y="0"
       width="70.590836"
       height="77.443825"
       id="page2"
       margin="0"
       bleed="0" /></sodipodi:namedview><defs
     id="defs1" /><g
     inkscape:label="Camada 1"
     inkscape:groupmode="layer"
     id="layer1"
     transform="translate(-69.552432,-102.36991)"><path
       style="fill:#ffffff;stroke-width:3.7651;paint-order:fill markers stroke"
       d="m 271.16261,584.10662 -8.28728,-8.37467 51.93555,-51.92052 51.93556,-51.92052 14.20056,14.55214 c 7.81031,8.00369 15.19461,14.55215 16.40955,14.55215 2.66541,0 74.59545,-71.63606 74.59545,-74.29057 0,-1.02499 -3.61692,-5.51868 -8.03762,-9.98598 l -8.03761,-8.12237 20.74401,-5.42084 c 11.40922,-2.98146 21.94124,-5.42653 23.40452,-5.43349 1.46327,-0.007 4.4039,-0.70925 6.53472,-1.56066 2.13082,-0.85141 5.53747,-1.70854 7.57032,-1.90474 2.03285,-0.1962 5.13684,-0.814 6.89776,-1.3729 3.79628,-1.20489 3.90902,-0.28615 0.98265,8.00807 -1.22046,3.45915 -2.09852,7.29877 -1.95126,8.5325 0.14727,1.23373 -0.51453,4.15288 -1.47064,6.48701 -0.95613,2.33412 -1.41356,5.09045 -1.0165,6.12517 0.39706,1.03472 0.17574,2.21888 -0.49183,2.63146 -0.66758,0.41258 -2.32999,5.82465 -3.69427,12.02682 -1.36427,6.20218 -3.21939,14.05406 -4.12248,17.44863 l -1.64198,6.17194 -7.35239,-7.26106 c -4.04383,-3.99359 -8.22543,-7.26107 -9.29245,-7.26107 -1.06701,0 -22.57031,20.61384 -47.78509,45.80854 l -45.84507,45.80853 -14.63691,-14.58709 c -8.0503,-8.0229 -15.42203,-14.5871 -16.38163,-14.5871 -0.9596,0 -20.71418,18.95069 -43.89906,42.11264 -23.18488,23.16195 -42.33995,42.11264 -42.56682,42.11264 -0.22686,0 -4.14176,-3.7686 -8.69976,-8.37466 z"
       id="path1"
       transform="scale(0.26458333)" /><path
       style="fill:#ffffff;stroke-width:3.7651;paint-order:fill markers stroke"
       d="m 286.07552,646.93728 v -32.6736 h 16.69984 16.69984 v 32.6736 32.6736 h -16.69984 -16.69984 z"
       id="path2"
       transform="scale(0.26458333)" /><path
       style="fill:#ffffff;stroke-width:3.7651;paint-order:fill markers stroke"
       d="m 348.86238,629.8744 c 0.3568,-46.44259 0.5504,-49.70822 2.92338,-49.30978 1.39771,0.23468 2.55129,-0.41879 2.56352,-1.45216 0.0158,-1.33724 0.42803,-1.25094 1.42992,0.29938 1.25128,1.93622 1.41263,1.93622 1.45216,0 0.0395,-1.93621 0.20088,-1.93621 1.45216,0 1.25128,1.93622 1.41263,1.93622 1.45216,0 0.0395,-1.93621 0.20088,-1.93621 1.45216,0 1.25128,1.93622 1.41263,1.93622 1.45216,0 0.0395,-1.93621 0.20088,-1.93621 1.45216,0 1.25128,1.93622 1.41263,1.93622 1.45216,0 0.0357,-1.75012 0.28607,-1.7971 1.27371,-0.23901 0.67609,1.06658 1.64629,1.88342 2.15601,1.8152 0.50972,-0.0682 3.86739,-0.12403 7.46148,-0.12403 h 6.53472 v 49.37344 49.37344 h -17.44498 -17.44499 z"
       id="path3"
       transform="scale(0.26458333)" /><path
       style="fill:#ffffff;stroke-width:3.7651;paint-order:fill markers stroke"
       d="m 415.31776,612.13291 v -67.47797 l 16.69984,0.27935 c 10.18416,0.17036 16.73467,0.86007 16.78911,1.76773 0.11741,1.95758 0.11862,122.07447 10e-4,128.18934 l -0.0906,4.71952 H 432.0176 415.31776 Z"
       id="path4"
       transform="scale(0.26458333)" /><path
       style="fill:#ffffff;stroke-width:3.7651;paint-order:fill markers stroke"
       d="m 479.2128,594.65952 c 0,-66.94481 0.38476,-84.9705 1.8152,-85.04167 0.99836,-0.0497 8.84026,-0.21304 17.42644,-0.36304 l 15.61124,-0.27273 -5.2e-4,85.3144 -5.2e-4,85.3144 H 496.63872 479.2128 Z"
       id="path5"
       transform="scale(0.26458333)" /><rect
       style="fill:#ffffff;stroke-width:0.686001;paint-order:fill markers stroke"
       id="rect5"
       width="9.1692905"
       height="18.440462"
       x="92.270233"
       y="152.92339" /><rect
       style="fill:#ffffff;stroke-width:0.686001;paint-order:fill markers stroke"
       id="rect6"
       width="8.8636475"
       height="11.648395"
       x="109.89564"
       y="144.12767" /><rect
       style="fill:#ffffff;stroke-width:0.686001;paint-order:fill markers stroke"
       id="rect7"
       width="9.0771351"
       height="12.030806"
       x="126.88777"
       y="134.66818" /><path
       style="fill:#1a274f;fill-opacity:1;stroke-width:0.700466;paint-order:fill markers stroke"
       d="m 138.64167,103.61861 -4.38173,18.19574 1.32929,0.39077 4.55404,-18.34227 z"
       id="path8"
       sodipodi:insensitive="true" /><path
       style="fill:#1a274f;fill-opacity:1;stroke-width:0.686001;paint-order:fill markers stroke"
       d="m 120.64424,108.13316 17.93815,-4.2504 -0.38422,-1.51286 -18.65855,3.79415 z"
       id="path9"
       inkscape:export-filename="Grafico.png"
       inkscape:export-xdpi="96"
       inkscape:export-ydpi="96"
       sodipodi:insensitive="true" /></g></svg>
