<?xml version="1.0" encoding="UTF-8" standalone="no"?>
<!-- Created with Inkscape (http://www.inkscape.org/) -->

<svg
   width="133.57285mm"
   height="119.6041mm"
   viewBox="0 0 133.57285 119.6041"
   version="1.1"
   id="svg1"
   xml:space="preserve"
   sodipodi:docname="home.svg"
   inkscape:export-filename="home.svg"
   inkscape:export-xdpi="36.10244"
   inkscape:export-ydpi="36.10244"
   inkscape:version="1.4.2 (f4327f4, 2025-05-13)"
   xmlns:inkscape="http://www.inkscape.org/namespaces/inkscape"
   xmlns:sodipodi="http://sodipodi.sourceforge.net/DTD/sodipodi-0.dtd"
   xmlns="http://www.w3.org/2000/svg"
   xmlns:svg="http://www.w3.org/2000/svg"><sodipodi:namedview
     id="namedview1"
     pagecolor="#ffffff"
     bordercolor="#000000"
     borderopacity="0.25"
     inkscape:showpageshadow="2"
     inkscape:pageopacity="0.0"
     inkscape:pagecheckerboard="0"
     inkscape:deskcolor="#d1d1d1"
     inkscape:document-units="mm"
     inkscape:zoom="1.7099991"
     inkscape:cx="252.33931"
     inkscape:cy="226.0235"
     inkscape:window-width="1920"
     inkscape:window-height="991"
     inkscape:window-x="-9"
     inkscape:window-y="-9"
     inkscape:window-maximized="1"
     inkscape:current-layer="layer1"><inkscape:page
       x="1.2303617e-13"
       y="0"
       width="133.57285"
       height="119.6041"
       id="page2"
       margin="0"
       bleed="0" /></sodipodi:namedview><defs
     id="defs1" /><g
     inkscape:label="Camada 1"
     inkscape:groupmode="layer"
     id="layer1"
     transform="translate(-41.610602,-88.580185)"><g
       id="g71"
       transform="translate(4.2263907,1.5368694)"><g
         id="g2"
         transform="matrix(0.31495648,0,0,0.31495648,37.384547,80.059151)"
         style="fill:#ffffff">
	<g
   id="g1"
   style="fill:#ffffff">
		<path
   style="fill:#ffffff"
   d="M 351.191,401.923 H 72.901 c -4.487,0 -8.129,-3.633 -8.129,-8.129 V 242.262 L 8.108,242.148 c -3.284,-0.008 -6.243,-1.992 -7.495,-5.023 -1.252,-3.04 -0.553,-6.527 1.764,-8.852 L 206.104,24.546 c 1.853,-1.845 4.503,-2.666 7.047,-2.276 2.414,0.39 4.511,1.845 5.731,3.942 l 47.43,47.43 V 58.499 c 0,-4.487 3.633,-8.129 8.129,-8.129 h 47.755 c 4.495,0 8.129,3.642 8.129,8.129 v 79.156 l 91.39,91.398 c 2.325,2.325 3.024,5.828 1.764,8.868 -1.26,3.032 -4.227,5.007 -7.511,5.007 -0.008,0 -0.008,0 -0.016,0 l -56.64,-0.114 v 150.98 c 0.008,4.496 -3.626,8.129 -8.121,8.129 z M 81.03,385.666 H 343.063 V 234.67 c 0,-2.162 0.854,-4.235 2.39,-5.755 1.528,-1.52 3.585,-2.374 5.739,-2.374 0.008,0 0.008,0 0.016,0 l 45.105,0.089 -79.855,-79.863 c -1.528,-1.528 -2.382,-3.593 -2.382,-5.747 V 66.628 h -31.498 v 26.645 c 0,3.284 -1.975,6.251 -5.015,7.511 -3.032,1.268 -6.527,0.569 -8.86,-1.764 l -57.038,-57.038 -183.95,183.95 45.203,0.089 c 4.487,0.008 8.112,3.642 8.112,8.129 0,-0.001 0,151.516 0,151.516 z"
   id="path1" />
	</g>
</g><g
         id="g70"><path
           style="fill:#ffffff;stroke-width:3.29309"
           d="m 238.88032,669.37976 v -91.55209 l -3.56439,-3.56439 c -3.5381,-3.53811 -3.77105,-3.5644 -31.58327,-3.5644 h -28.01887 l 108.52865,-108.52865 108.52865,-108.52864 35.30202,35.19456 c 38.3221,38.20546 39.48727,38.99212 46.84921,31.63018 3.38988,-3.38987 3.5644,-4.42086 3.5644,-21.05632 v -17.49193 h 18.152 18.152 v 46.78196 46.78196 l 48.25526,48.33452 48.25527,48.33452 h -28.42603 c -25.69445,0 -28.65699,0.25519 -30.82935,2.65563 -2.18291,2.41209 -2.40331,11.06807 -2.40331,94.3904 v 91.73477 H 394.26144 238.88032 Z"
           id="path2"
           transform="scale(0.26458333)" /><path
           style="fill:#ffffff;stroke-width:3.29309"
           d="m 222.09499,777.74922 c -2.73229,-1.99744 -2.83094,-4.91767 -3.21318,-95.11648 l -0.39435,-93.05578 H 183.2184 c -37.46816,0 -38.87774,-0.24403 -40.91704,-7.08395 -0.92384,-3.09862 11.78303,-16.26948 123.63851,-128.15312 82.84889,-82.86975 125.65063,-124.69957 127.59696,-124.69957 1.87668,0 13.8743,10.95483 33.39821,30.49536 16.75819,16.77245 30.96537,30.49536 31.57151,30.49536 0.60615,0 1.10209,-5.19072 1.10209,-11.53494 0,-16.49623 -1.02393,-16.0561 37.3532,-16.0561 28.96211,0 31.08032,0.182 33.80264,2.90432 2.78953,2.78953 2.90432,4.84053 2.90432,51.89008 v 48.98576 l 55.90816,55.97607 c 39.98031,40.02887 55.90816,56.8946 55.90816,59.20017 0,1.77324 -1.30694,4.53103 -2.90432,6.1284 -2.74626,2.74627 -4.84053,2.90432 -38.48224,2.90432 h -35.57792 v 91.16296 c 0,80.15934 -0.27286,91.55253 -2.26057,94.3904 l -2.2606,3.22744 H 394.45666 c -144.11469,0 -169.96561,-0.30906 -172.36167,-2.0607 z m 328.29151,-101.04266 0.0179,-84.95136 -0.39259,84.58832 -0.39261,84.58832 H 394.24974 238.88032 v -91.75553 -91.75552 l -3.15745,-3.36096 c -3.08642,-3.28533 -3.78058,-3.36095 -30.85718,-3.36095 h -27.69972 l 107.81545,-107.81546 107.81546,-107.81545 28.68636,28.43189 c 43.32451,42.9402 45.84657,44.69734 53.64253,37.37341 3.20062,-3.00682 3.34771,-4.02866 3.08334,-21.41936 l -0.27762,-18.26191 -0.8115,18.63673 c -0.70633,16.22111 -1.17687,18.90329 -3.63034,20.69328 -1.55035,1.1311 -4.13421,2.05655 -5.74191,2.05655 -1.87881,0 -15.66448,-12.70413 -38.58832,-35.56091 L 393.49419,351.45673 283.1542,461.80389 172.81421,572.15104 h 28.74258 c 28.58061,0 28.76267,0.0201 32.30698,3.5644 l 3.56439,3.56439 v 91.5586 91.5586 l 156.47024,-0.36956 156.47024,-0.36955 z m 4.04791,-101.95101 c 0.95859,-0.60933 14.64894,-1.11789 30.42303,-1.13011 15.77409,-0.0122 28.68016,-0.516 28.68016,-1.11949 0,-0.60349 -21.88245,-22.97239 -48.62768,-49.70869 l -48.62768,-48.61143 -0.40356,-46.49691 -0.40355,-46.49692 -0.34221,47.91315 -0.3422,47.91315 47.54999,47.56637 47.55,47.56637 H 582.0486 c -29.95576,0 -32.52098,0.61345 -32.31399,7.72757 0.087,2.98968 0.17081,2.96627 1.5245,-0.42577 0.78785,-1.97417 2.21673,-4.08795 3.1753,-4.69729 z"
           id="path3"
           transform="scale(0.26458333)" /><path
           style="fill:#ffffff;stroke-width:3.29309"
           d="m 222.09499,777.74922 c -2.73229,-1.99744 -2.83094,-4.91767 -3.21318,-95.11648 l -0.39435,-93.05578 H 183.2184 c -37.46816,0 -38.87774,-0.24403 -40.91704,-7.08395 -0.92384,-3.09862 11.78303,-16.26948 123.63851,-128.15312 82.84889,-82.86975 125.65063,-124.69957 127.59696,-124.69957 1.87668,0 13.8743,10.95483 33.39821,30.49536 16.75819,16.77245 30.96537,30.49536 31.57151,30.49536 0.60615,0 1.10209,-5.19072 1.10209,-11.53494 0,-16.49623 -1.02393,-16.0561 37.3532,-16.0561 28.96211,0 31.08032,0.182 33.80264,2.90432 2.78953,2.78953 2.90432,4.84053 2.90432,51.89008 v 48.98576 l 55.90816,55.97607 c 39.98031,40.02887 55.90816,56.8946 55.90816,59.20017 0,1.77324 -1.30694,4.53103 -2.90432,6.1284 -2.74626,2.74627 -4.84053,2.90432 -38.48224,2.90432 h -35.57792 v 91.16296 c 0,80.15934 -0.27286,91.55253 -2.26057,94.3904 l -2.2606,3.22744 H 394.45666 c -144.11469,0 -169.96561,-0.30906 -172.36167,-2.0607 z m 172.52949,-16.45426 -155.74416,-0.3762 v -91.74898 -91.74899 l -3.15745,-3.36096 c -3.08642,-3.28533 -3.78058,-3.36095 -30.85718,-3.36095 h -27.69972 l 107.8151,-107.8151 107.8151,-107.8151 27.23455,26.96466 c 44.94566,44.50022 47.30186,46.16125 55.09505,38.83993 3.20062,-3.00682 3.34771,-4.02866 3.08334,-21.41936 l -0.27762,-18.26191 -0.8115,18.63673 c -0.70633,16.22111 -1.17687,18.90329 -3.63034,20.69328 -1.55035,1.1311 -4.13421,2.05655 -5.74191,2.05655 -1.87881,0 -15.66448,-12.70413 -38.58832,-35.56091 L 393.49419,351.45673 283.1542,461.80389 172.81421,572.15104 h 28.74258 c 28.58061,0 28.76267,0.0201 32.30698,3.5644 l 3.56439,3.56439 v 91.55209 91.55208 l 156.47024,-0.35643 156.47024,-0.35643 z m 159.97654,-186.5804 c 0.86694,-0.58679 14.48233,-1.0769 30.25642,-1.08912 15.77409,-0.0122 28.68016,-0.516 28.68016,-1.11949 0,-0.60349 -21.8822,-22.97214 -48.62714,-49.70813 l -48.62714,-48.6109 -0.40471,-45.0453 -0.4047,-45.0453 -0.3416,46.46099 -0.34159,46.46099 47.54999,47.56637 47.55,47.56637 H 582.0486 c -23.37479,0 -28.20825,0.36615 -30.12407,2.28197 -1.25509,1.25507 -2.2621,3.37886 -2.23781,4.71952 0.0366,2.0209 0.32566,1.94112 1.6911,-0.46677 0.90581,-1.59737 2.35625,-3.38442 3.2232,-3.9712 z"
           id="path4"
           transform="scale(0.26458333)" /><path
           style="fill:#ffffff;stroke-width:3.29309"
           d="m 222.09499,777.74922 c -2.73229,-1.99744 -2.83094,-4.91767 -3.21318,-95.11648 l -0.39435,-93.05578 h -35.54661 c -33.6104,0 -35.70481,-0.1582 -38.45093,-2.90432 -1.59738,-1.59737 -2.90432,-4.03896 -2.90432,-5.42575 0,-3.68288 248.26329,-251.60657 251.95123,-251.60657 1.87668,0 13.8743,10.95483 33.39821,30.49536 16.75819,16.77245 30.96537,30.49536 31.57151,30.49536 0.60615,0 1.10209,-5.19072 1.10209,-11.53494 0,-16.49623 -1.02393,-16.0561 37.3532,-16.0561 28.96211,0 31.08032,0.182 33.80264,2.90432 2.78953,2.78953 2.90432,4.84053 2.90432,51.89008 v 48.98576 l 55.90816,55.97607 c 39.98031,40.02887 55.90816,56.8946 55.90816,59.20017 0,1.77324 -1.30694,4.53103 -2.90432,6.1284 -2.74626,2.74627 -4.84053,2.90432 -38.48224,2.90432 h -35.57792 v 91.16296 c 0,80.15934 -0.27286,91.55253 -2.26057,94.3904 l -2.2606,3.22744 H 394.45666 c -144.11469,0 -169.96561,-0.30906 -172.36167,-2.0607 z m 170.35125,-16.45426 -153.56592,-0.37637 v -92.10013 -92.10014 l -3.82624,-3.00972 c -3.55965,-2.80003 -5.70955,-3.00972 -30.85717,-3.00972 h -27.03094 l 107.71935,-107.71935 107.71935,-107.71936 30.96071,30.277 c 17.02839,16.65234 33.50927,32.12572 36.62418,34.38527 7.0717,5.1298 11.41122,5.20986 15.28744,0.28205 2.67975,-3.40675 2.97988,-5.59586 2.73756,-19.96721 l -0.27218,-16.14096 -0.81694,17.18476 c -0.70234,14.77383 -1.21242,17.47324 -3.63579,19.24112 -1.55035,1.131 -4.13421,2.05636 -5.74191,2.05636 -1.87881,0 -15.66448,-12.70413 -38.58832,-35.56091 L 393.49419,351.45673 283.1542,461.80389 172.81421,572.15104 h 28.74258 c 28.58061,0 28.76267,0.0201 32.30698,3.5644 l 3.56439,3.56439 v 91.55209 91.55208 l 154.292,-0.35634 154.292,-0.35633 z m 162.15478,-186.5804 c 0.86694,-0.58679 14.04669,-1.0769 29.28831,-1.08912 15.24164,-0.0122 28.17315,-0.48333 28.73672,-1.0469 0.56356,-0.56355 -20.88307,-22.94497 -47.65919,-49.73648 l -48.68384,-48.71182 -0.40967,-36.304 -0.40967,-36.304 -0.33648,37.74803 -0.33648,37.74803 47.54999,47.56637 47.55,47.56637 -27.5828,0.0222 c -15.17054,0.0122 -28.31155,0.50233 -29.20227,1.08912 -0.89071,0.58678 -2.06549,2.70056 -2.61062,4.69728 -0.91301,3.34425 -0.85238,3.40148 0.7693,0.72608 0.96823,-1.59737 2.46975,-3.38442 3.3367,-3.9712 z"
           id="path5"
           transform="scale(0.26458333)" /><path
           style="fill:#ffffff;stroke-width:3.29309"
           d="m 222.09499,777.74922 c -2.73229,-1.99744 -2.83094,-4.91767 -3.21318,-95.11648 l -0.39435,-93.05578 h -35.54661 c -33.6104,0 -35.70481,-0.1582 -38.45093,-2.90432 -1.59738,-1.59737 -2.90432,-4.03896 -2.90432,-5.42575 0,-3.68317 248.26332,-251.60657 251.95155,-251.60657 1.87487,0 13.63405,10.71451 32.67181,29.76928 16.3585,16.37311 30.56553,29.76928 31.57119,29.76928 1.30611,0 1.82849,-3.088 1.82849,-10.80886 0,-15.65425 -0.79003,-15.33002 37.3532,-15.33002 28.96211,0 31.08032,0.182 33.80264,2.90432 2.78953,2.78953 2.90432,4.84053 2.90432,51.89008 v 48.98576 l 55.90816,55.97607 c 39.98031,40.02887 55.90816,56.8946 55.90816,59.20017 0,1.77324 -1.30694,4.53103 -2.90432,6.1284 -2.74626,2.74627 -4.84053,2.90432 -38.48224,2.90432 h -35.57792 v 91.16296 c 0,80.15934 -0.27286,91.55253 -2.26057,94.3904 l -2.2606,3.22744 H 394.45666 c -144.11469,0 -169.96561,-0.30906 -172.36167,-2.0607 z M 370.66384,761.29499 238.88032,760.91648 V 668.8174 576.71832 l -3.82624,-3.00972 c -3.55965,-2.80003 -5.70955,-3.00972 -30.85717,-3.00972 H 177.16597 L 284.87123,462.99362 392.5765,355.28835 l 29.52263,28.75838 c 43.04804,41.93366 46.82307,44.49084 53.37787,36.15776 2.62233,-3.33374 2.97593,-5.62347 2.74722,-17.78897 l -0.26251,-13.96272 -0.82661,15.00661 c -0.8783,15.94493 -2.43682,19.11915 -9.38736,19.11915 -1.87881,0 -15.66448,-12.70413 -38.58832,-35.56091 L 393.49419,351.45673 283.1542,461.80389 172.81421,572.15104 h 28.48074 c 26.61434,0 28.73148,0.19723 32.30697,3.00972 l 3.82624,3.00972 v 92.10676 92.10676 l 132.5096,-0.35525 132.5096,-0.35527 z M 583.8249,573.6032 c 20.45955,0 28.26054,-0.46466 28.26054,-1.68333 0,-0.92582 -21.5496,-23.32224 -47.88802,-49.7698 l -47.88803,-48.08648 -0.43033,-27.55771 -0.43033,-27.55772 -0.32901,29.03507 -0.329,29.03507 47.54999,47.56637 47.55,47.56637 h -26.58914 c -26.81389,0 -31.05257,0.69742 -32.85178,5.40526 -0.7509,1.96483 -0.25777,1.80098 2.06397,-0.68574 2.96149,-3.17194 3.87587,-3.26736 31.31114,-3.26736 z"
           id="path6"
           transform="scale(0.26458333)" /><path
           style="fill:#ffffff;stroke-width:3.29309"
           d="m 222.09499,777.74922 c -2.73229,-1.99744 -2.83094,-4.91767 -3.21318,-95.11648 l -0.39435,-93.05578 h -35.54661 c -33.6104,0 -35.70481,-0.1582 -38.45093,-2.90432 -1.59738,-1.59737 -2.90432,-4.03896 -2.90432,-5.42575 0,-3.60439 248.25654,-251.60657 251.86462,-251.60657 1.7543,0 14.37233,11.44685 32.96576,29.9059 16.56797,16.44824 30.81413,29.47911 31.65812,28.9575 0.844,-0.52162 1.53454,-5.44709 1.53454,-10.94548 0,-14.71357 -0.50256,-14.51824 37.3532,-14.51824 28.96211,0 31.08032,0.182 33.80264,2.90432 2.78953,2.78953 2.90432,4.84053 2.90432,51.89008 v 48.98576 l 55.90816,55.97607 c 39.98031,40.02887 55.90816,56.8946 55.90816,59.20017 0,1.77324 -1.30694,4.53103 -2.90432,6.1284 -2.74626,2.74627 -4.84053,2.90432 -38.48224,2.90432 h -35.57792 v 91.16296 c 0,80.15934 -0.27286,91.55253 -2.26057,94.3904 l -2.2606,3.22744 H 394.45666 c -144.11469,0 -169.96561,-0.30906 -172.36167,-2.0607 z m 112.26485,-16.45416 -95.47952,-0.3841 v -91.97665 c 0,-91.61911 -0.0119,-91.98741 -3.05246,-94.743 -2.70727,-2.45351 -6.15696,-2.84845 -30.50475,-3.49243 l -27.45229,-0.72608 107.34451,-107.33146 107.34453,-107.33146 31.75543,30.73444 c 17.46547,16.90394 33.36828,31.8017 35.33957,33.10614 1.97131,1.30444 -11.7672,-13.07393 -30.52999,-31.95194 -18.76279,-18.878 -34.77448,-34.32364 -35.58152,-34.32364 -0.80705,0 -50.80125,49.33714 -111.09823,109.63808 L 172.81425,572.15104 h 28.48072 c 26.61432,0 28.73146,0.19723 32.30695,3.00972 l 3.82624,3.00972 v 92.10676 92.10676 l 96.2056,-0.35242 96.2056,-0.35241 z m 220.40371,-187.4114 c -0.44711,-0.44711 -1.61886,-9.3e-4 -2.60392,0.9915 -1.42349,1.43419 -1.25669,1.60098 0.81292,0.81292 1.43215,-0.54533 2.2381,-1.35732 1.791,-1.80442 z m 55.72562,-1.61283 c 1.53691,-0.97308 -9.7227,-13.14681 -46.06201,-49.80165 l -48.09615,-48.51375 -0.45303,-19.51675 -0.45304,-19.51676 -0.31711,21.0647 -0.31711,21.0647 47.20807,47.18682 47.20807,47.18682 -24.33655,0.77948 -24.33655,0.77947 23.96064,0.28742 c 13.17835,0.15806 24.876,-0.29215 25.99477,-1.0005 z M 475.477,420.20449 c 2.54355,-3.23359 2.97093,-5.65154 2.75928,-15.61073 l -0.25042,-11.78448 -0.8387,12.82792 c -0.91034,13.92398 -3.20011,17.75387 -9.87074,16.50988 -1.77287,-0.33062 -2.87789,-0.0421 -2.45557,0.64126 1.61553,2.61398 7.73464,1.13025 10.65615,-2.58385 z"
           id="path7"
           transform="scale(0.26458333)" /><path
           style="fill:#ffffff;stroke-width:3.29309"
           d="m 222.09499,777.74922 c -2.73229,-1.99744 -2.83094,-4.91767 -3.21318,-95.11648 l -0.39435,-93.05578 h -35.54661 c -33.6104,0 -35.70481,-0.1582 -38.45093,-2.90432 -1.59738,-1.59737 -2.90432,-4.03896 -2.90432,-5.42575 0,-3.53715 248.25099,-251.60657 251.79074,-251.60657 1.64977,0 15.01423,12.05588 33.07627,29.8376 16.66937,16.41069 30.94878,29.44156 31.73199,28.9575 0.78322,-0.48405 1.42404,-5.37879 1.42404,-10.87718 0,-14.71357 -0.50256,-14.51824 37.3532,-14.51824 28.96211,0 31.08032,0.182 33.80264,2.90432 2.78953,2.78953 2.90432,4.84053 2.90432,51.89008 v 48.98576 l 55.90816,55.97607 c 39.98031,40.02887 55.90816,56.8946 55.90816,59.20017 0,1.77324 -1.30694,4.53103 -2.90432,6.1284 -2.74626,2.74627 -4.84053,2.90432 -38.48224,2.90432 h -35.57792 v 91.16296 c 0,80.15934 -0.27286,91.55253 -2.26057,94.3904 l -2.2606,3.22744 H 394.45666 c -144.11469,0 -169.96561,-0.30906 -172.36167,-2.0607 z m 89.75637,-16.45403 -72.97104,-0.39021 v -91.72135 c 0,-83.30982 -0.2204,-91.96488 -2.40331,-94.37696 -1.32181,-1.4606 -3.37036,-2.65563 -4.55231,-2.65563 -1.35774,0 -0.74019,1.10819 1.67722,3.00972 l 3.82624,3.00972 v 92.10676 92.10676 l 73.69712,-0.3493 73.69712,-0.3493 z m 286.13592,-188.7656 c -4.95859,-0.28269 -13.45373,-0.28478 -18.87808,-0.005 -5.42437,0.28017 -1.36734,0.51147 9.0156,0.51401 10.38295,0.003 14.82105,-0.22668 9.86248,-0.50939 z m -394.32963,-1.77982 -25.78363,-0.77697 107.34961,-107.33814 107.3496,-107.33814 31.45546,30.37366 c 17.30051,16.70551 32.54684,30.94074 33.88075,31.63383 1.33391,0.69309 -12.27239,-13.51993 -30.23622,-31.58448 -17.96382,-18.06456 -33.32203,-32.84465 -34.12936,-32.84465 -0.80733,0 -50.80176,49.33714 -111.09874,109.63808 l -109.63087,109.63808 28.31352,-0.31215 28.31351,-0.31216 z m 399.65005,-8.43673 c -4.33481,-4.5727 -25.67921,-26.28448 -47.432,-48.2484 l -39.55051,-39.9344 -0.46331,-14.5216 -0.46331,-14.5216 -0.30393,15.96563 -0.30392,15.96563 47.49362,47.50998 c 26.12148,26.13049 47.81115,47.19246 48.19924,46.80437 0.38809,-0.38809 -2.84106,-4.44692 -7.17588,-9.01961 z M 473.80712,421.77014 c 1.77509,-1.24332 3.22744,-3.0019 3.22744,-3.90795 0,-0.90605 -0.81759,-0.52924 -1.81688,0.83737 -0.99929,1.3666 -3.77655,3.06901 -6.17168,3.78313 -3.07028,0.91541 -3.48633,1.33521 -1.41056,1.42321 1.61935,0.0687 4.39661,-0.89244 6.17168,-2.13576 z m 4.28723,-20.57855 c -0.31437,-3.01289 -0.57683,-0.90368 -0.58328,4.68713 -0.006,5.59082 0.25076,8.05591 0.57156,5.47799 0.3208,-2.57792 0.32607,-7.15222 0.0117,-10.16512 z"
           id="path8"
           transform="scale(0.26458333)" /><path
           style="fill:#ffffff;stroke-width:3.29309"
           d="m 222.09499,777.74922 c -2.73229,-1.99744 -2.83094,-4.91767 -3.21318,-95.11648 l -0.39435,-93.05578 h -35.54661 c -33.6104,0 -35.70481,-0.1582 -38.45093,-2.90432 -1.59738,-1.59737 -2.90432,-4.03896 -2.90432,-5.42575 0,-3.47777 248.2463,-251.60657 251.72574,-251.60657 1.55641,0 15.67698,12.65897 33.28304,29.83795 21.81371,21.28456 30.92231,29.29791 31.77477,27.95408 0.65726,-1.03613 1.20503,-5.93101 1.21726,-10.87753 0.0335,-13.55257 -0.0709,-13.51482 37.37543,-13.51482 28.96211,0 31.08032,0.182 33.80264,2.90432 2.78953,2.78953 2.90432,4.84053 2.90432,51.89008 v 48.98576 l 55.90816,55.97607 c 39.98031,40.02887 55.90816,56.8946 55.90816,59.20017 0,1.77324 -1.30694,4.53103 -2.90432,6.1284 -2.74626,2.74627 -4.84053,2.90432 -38.48224,2.90432 h -35.57792 v 91.16296 c 0,80.15934 -0.27286,91.55253 -2.26057,94.3904 l -2.2606,3.22744 H 394.45666 c -144.11469,0 -169.96561,-0.30906 -172.36167,-2.0607 z m 70.87829,-16.4538 -54.09296,-0.39892 v -91.14529 c 0,-80.14335 -0.27287,-91.53487 -2.26058,-94.37273 -1.24332,-1.77509 -2.99091,-3.22744 -3.88353,-3.22744 -0.89263,0 -0.2021,1.51243 1.5345,3.36095 l 3.15745,3.36096 v 91.75552 91.75553 l 54.81904,-0.34481 54.81904,-0.34483 z m 301.3232,-188.75007 c -2.99508,-0.31329 -7.89612,-0.31329 -10.8912,0 -2.99508,0.3133 -0.54456,0.56962 5.4456,0.56962 5.99016,0 8.44068,-0.25632 5.4456,-0.56962 z M 202.20512,570.75228 177.87327,569.9728 285.24163,462.61627 392.61,355.25974 l 31.35246,30.23967 c 17.24383,16.63182 31.65447,29.93764 32.02362,29.56849 0.36916,-0.36916 -13.34276,-14.5884 -30.47095,-31.59831 l -31.14212,-30.92712 -5.50138,4.42974 c -3.02576,2.43636 -52.87642,51.84829 -110.77923,109.80429 l -105.27785,105.37454 26.86121,-0.30964 26.8612,-0.30965 z m 397.51486,-12.03372 c -6.36419,-6.58917 -27.72721,-28.31712 -47.4734,-48.28432 l -35.90215,-36.304 -0.48832,-10.8912 -0.48831,-10.8912 -0.28853,12.33511 -0.28855,12.3351 46.82378,46.84042 c 25.75309,25.76222 47.4657,46.84041 48.25026,46.84041 0.78455,0 -3.7806,-5.39114 -10.14478,-11.98032 z M 473.80712,421.77014 c 1.77509,-1.24332 3.22744,-3.0019 3.22744,-3.90795 0,-0.90605 -0.81684,-0.56707 -1.8152,0.7533 -0.99836,1.32037 -3.44888,3.03753 -5.4456,3.81591 -1.99672,0.77837 -2.63223,1.45665 -1.41224,1.50728 1.22001,0.0506 3.67053,-0.92522 5.4456,-2.16854 z m 4.25228,-18.4327 c -0.34613,-1.79705 -0.62933,-0.32673 -0.62933,3.26736 0,3.5941 0.2832,5.06441 0.62933,3.26736 0.34613,-1.79705 0.34613,-4.73767 0,-6.53472 z"
           id="path9"
           transform="scale(0.26458333)" /><path
           style="fill:#ffffff;stroke-width:3.29309"
           d="m 222.09499,777.74922 c -2.73229,-1.99744 -2.83094,-4.91767 -3.21318,-95.11648 l -0.39435,-93.05578 h -35.54661 c -33.6104,0 -35.70481,-0.1582 -38.45093,-2.90432 -1.59738,-1.59737 -2.90432,-4.03896 -2.90432,-5.42575 0,-3.69853 248.26469,-251.60657 251.96854,-251.60657 1.78543,0 8.0831,5.19059 15.98526,13.17519 7.17154,7.24636 20.76772,20.43641 30.21373,29.31123 19.0766,17.92305 19.79467,18.05708 19.83328,3.702 0.0342,-12.71303 0.25546,-12.78874 37.37543,-12.78874 28.96211,0 31.08032,0.182 33.80264,2.90432 2.78953,2.78953 2.90432,4.84053 2.90432,51.89008 v 48.98576 l 55.90816,55.97607 c 39.98031,40.02887 55.90816,56.8946 55.90816,59.20017 0,1.77324 -1.30694,4.53103 -2.90432,6.1284 -2.74626,2.74627 -4.84053,2.90432 -38.48224,2.90432 h -35.57792 v 91.16296 c 0,80.15934 -0.27286,91.55253 -2.26057,94.3904 l -2.2606,3.22744 H 394.45666 c -144.11469,0 -169.96561,-0.30906 -172.36167,-2.0607 z m 58.54583,-16.45342 -41.73869,-0.40847 -0.38506,-91.10077 -0.38505,-91.1008 -0.35193,91.84912 -0.35193,91.84912 42.47568,-0.33987 42.47568,-0.33988 z M 237.42816,576.55861 c 0,-0.77059 -1.47031,-2.17261 -3.26736,-3.11562 -3.24984,-1.70536 -3.25253,-1.69786 -0.50101,1.40107 3.07325,3.46128 3.76837,3.77755 3.76837,1.71455 z m 353.964,-3.95642 c -1.3977,-0.36525 -3.68485,-0.36525 -5.08256,0 -1.3977,0.36526 -0.25413,0.66411 2.54128,0.66411 2.79541,0 3.93899,-0.29885 2.54128,-0.66411 z m -392.09228,-1.84406 -21.42845,-0.78533 107.4564,-107.44363 107.4564,-107.44364 14.17108,13.77577 c 7.79411,7.57668 21.52265,20.9549 30.50789,29.72939 8.98524,8.77449 16.3368,15.27596 16.3368,14.44772 0,-0.82824 -13.37889,-14.78348 -29.73088,-31.01165 l -29.73089,-29.50577 -8.38831,7.34485 c -4.61357,4.03966 -54.45635,53.45642 -110.76174,109.81502 l -102.37342,102.47018 23.95678,-0.30379 23.95678,-0.30379 z M 593.1895,552.18384 c -9.16868,-9.38458 -30.20411,-30.78579 -46.74539,-47.55824 l -30.07508,-30.49536 -0.52053,-7.98688 -0.52054,-7.98688 -0.26862,9.46943 -0.26862,9.46943 46.15858,46.07568 c 25.38721,25.34165 46.77776,46.0757 47.53455,46.0757 0.75678,0 -6.12567,-7.67829 -15.29435,-17.06288 z M 473.48965,421.77237 c 2.77373,-2.22221 2.77236,-2.23697 -0.0855,-0.92231 -1.59737,0.73483 -3.88453,1.6995 -5.08256,2.14371 -1.88162,0.69768 -1.86999,0.82328 0.0855,0.92231 1.24505,0.063 3.53221,-0.90162 5.08256,-2.14371 z m 4.50665,-16.98277 c -0.40285,-0.99836 -0.73246,-0.18152 -0.73246,1.8152 0,1.99672 0.32961,2.81356 0.73246,1.8152 0.40284,-0.99836 0.40284,-2.63204 0,-3.6304 z"
           id="path10"
           transform="scale(0.26458333)" /><path
           style="fill:#ffffff;stroke-width:3.29309"
           d="m 222.09499,777.74922 c -2.73229,-1.99744 -2.83094,-4.91767 -3.21318,-95.11648 l -0.39435,-93.05578 h -35.54661 c -33.6104,0 -35.70481,-0.1582 -38.45093,-2.90432 -1.59738,-1.59737 -2.90432,-4.03896 -2.90432,-5.42575 0,-3.4548 248.24455,-251.60657 251.70064,-251.60657 1.51191,0 15.4265,12.34801 31.95235,28.35497 16.31934,15.80694 30.24104,28.17111 31.45905,27.9395 1.60811,-0.30579 2.29881,-2.79858 2.61636,-9.44246 0.64665,-13.52956 0.43049,-13.45233 37.64784,-13.45233 28.96211,0 31.08032,0.182 33.80264,2.90432 2.78953,2.78953 2.90432,4.84053 2.90432,51.89008 v 48.98576 l 55.90816,55.97607 c 39.98031,40.02887 55.90816,56.8946 55.90816,59.20017 0,1.77324 -1.30694,4.53103 -2.90432,6.1284 -2.74626,2.74627 -4.84053,2.90432 -38.48224,2.90432 h -35.57792 v 91.16296 c 0,80.15934 -0.27286,91.55253 -2.26057,94.3904 l -2.2606,3.22744 H 394.45666 c -144.11469,0 -169.96561,-0.30906 -172.36167,-2.0607 z m 49.10731,-16.45286 -32.29915,-0.42002 -0.3861,-86.73881 -0.3861,-86.73881 -0.35139,87.49264 -0.3514,87.49264 33.03664,-0.3338 33.03664,-0.33381 z M 237.42816,576.55861 c 0,-0.77059 -1.47031,-2.17261 -3.26736,-3.11562 -3.24984,-1.70536 -3.25253,-1.69786 -0.50101,1.40107 3.07325,3.46128 3.76837,3.77755 3.76837,1.71455 z m -41.03382,-5.79316 -18.52535,-0.79265 107.45491,-107.44092 107.4549,-107.44092 11.99557,11.5913 c 6.59755,6.37522 20.0717,19.43614 29.94252,29.02428 9.87084,9.58814 17.27641,16.12604 16.45684,14.52866 -0.81959,-1.59737 -13.9482,-15.2369 -29.17473,-30.31005 L 394.31443,352.51941 383.0337,362.7694 c -6.20441,5.63749 -56.04178,55.05461 -110.74972,109.81582 l -99.46899,99.56582 21.05235,-0.29647 21.05234,-0.29649 z m 393.16611,-22.21201 c -11.1693,-11.3813 -32.20018,-32.78251 -46.73529,-47.55824 -24.2141,-24.61498 -26.47428,-27.35145 -26.98682,-32.6736 -0.51366,-5.33369 -0.57935,-5.20486 -0.80351,1.57562 l -0.24411,7.38425 46.36425,45.98262 c 25.50033,25.29046 46.8928,45.98263 47.53879,45.98263 0.646,0 -7.96399,-9.31197 -19.13331,-20.69328 z M 471.94172,422.59519 c 0.50875,-0.82317 -0.0741,-1.06662 -1.36645,-0.57071 -2.51575,0.96538 -2.97604,2.00624 -0.88721,2.00624 0.75155,0 1.76571,-0.64599 2.25366,-1.43553 z"
           id="path11"
           transform="scale(0.26458333)" /><path
           style="fill:#ffffff;stroke-width:3.29309"
           d="m 222.09499,777.74922 c -2.73229,-1.99744 -2.83094,-4.91767 -3.21318,-95.11648 l -0.39435,-93.05578 h -35.54661 c -33.6104,0 -35.70481,-0.1582 -38.45093,-2.90432 -1.59738,-1.59737 -2.90432,-4.03896 -2.90432,-5.42575 0,-3.45066 248.24424,-251.60657 251.69614,-251.60657 1.49616,0 15.11597,11.97972 30.92525,27.20125 28.49573,27.43635 31.98591,30.42847 33.60492,28.80946 0.48937,-0.48936 1.17373,-4.81575 1.52082,-9.61419 0.94513,-13.06623 0.74422,-12.99684 37.62911,-12.99684 28.96211,0 31.08032,0.182 33.80264,2.90432 2.78953,2.78953 2.90432,4.84053 2.90432,51.89008 v 48.98576 l 55.90816,55.97607 c 39.98031,40.02887 55.90816,56.8946 55.90816,59.20017 0,1.77324 -1.30694,4.53103 -2.90432,6.1284 -2.74626,2.74627 -4.84053,2.90432 -38.48224,2.90432 h -35.57792 v 91.16296 c 0,80.15934 -0.27286,91.55253 -2.26057,94.3904 l -2.2606,3.22744 H 394.45666 c -144.11469,0 -169.96561,-0.30906 -172.36167,-2.0607 z m 41.84791,-16.45196 -25.03694,-0.43389 -0.38897,-76.56721 -0.38898,-76.5672 -0.34992,77.32752 -0.34993,77.32752 25.77584,-0.32641 25.77584,-0.32642 z M 237.42816,576.55861 c 0,-0.77059 -1.47031,-2.17261 -3.26736,-3.11562 -3.24984,-1.70536 -3.25253,-1.69786 -0.50101,1.40107 3.07325,3.46128 3.76837,3.77755 3.76837,1.71455 z m -43.21326,-5.78635 -16.34829,-0.79946 107.45495,-107.43977 107.45495,-107.43978 11.27063,10.86331 c 6.19884,5.97482 19.02019,18.38175 28.49189,27.57097 9.47168,9.18922 16.55127,15.40073 15.73241,13.80335 -0.81886,-1.59737 -13.29859,-14.58407 -27.73274,-28.85931 l -26.2439,-25.955 -17.07955,16.06001 c -9.39376,8.833 -59.22661,58.25076 -110.73967,109.81723 l -93.6601,93.75723 18.87386,-0.28966 18.87386,-0.28965 z m 368.2886,-49.5897 c -34.87288,-35.69805 -45.7448,-47.68359 -46.4325,-51.18863 -0.84948,-4.32962 -0.90826,-4.25338 -1.08912,1.41243 l -0.19116,5.98908 45.79006,45.19957 c 25.18454,24.85976 46.16519,45.19955 46.62366,45.19955 0.45848,0 -19.65694,-20.97539 -44.70094,-46.612 z"
           id="path12"
           transform="scale(0.26458333)" /><path
           style="fill:#ffffff;stroke-width:3.29309"
           d="m 222.09499,777.74922 c -2.73229,-1.99744 -2.83094,-4.91767 -3.21318,-95.11648 l -0.39435,-93.05578 h -35.54661 c -33.6104,0 -35.70481,-0.1582 -38.45093,-2.90432 -1.59738,-1.59737 -2.90432,-4.03896 -2.90432,-5.42575 0,-3.46103 248.24503,-251.60657 251.70744,-251.60657 1.50545,0 14.72333,11.56527 30.08774,26.32592 27.93889,26.841 32.92912,31.18679 34.27083,29.84509 0.41771,-0.41772 1.12226,-4.76025 1.56565,-9.65009 1.19944,-13.22766 0.89332,-13.12124 37.74458,-13.12124 28.96211,0 31.08032,0.182 33.80264,2.90432 2.78953,2.78953 2.90432,4.84053 2.90432,51.89008 v 48.98576 l 55.90816,55.97607 c 39.98031,40.02887 55.90816,56.8946 55.90816,59.20017 0,1.77324 -1.30694,4.53103 -2.90432,6.1284 -2.74626,2.74627 -4.84053,2.90432 -38.48224,2.90432 h -35.57792 v 91.16296 c 0,80.15934 -0.27286,91.55253 -2.26057,94.3904 l -2.2606,3.22744 H 394.45666 c -144.11469,0 -169.96561,-0.30906 -172.36167,-2.0607 z m 34.58968,-16.44986 -17.77356,-0.45666 -0.39427,-62.76134 -0.39427,-62.76136 -0.3472,63.532 -0.34721,63.532 18.51504,-0.31398 18.51504,-0.31399 z M 236.76179,575.15197 c -0.52645,-0.85182 -1.65211,-1.54877 -2.50146,-1.54877 -0.96292,0 -0.85275,0.83322 0.29264,2.21334 1.99169,2.39984 3.77174,1.86428 2.20882,-0.66457 z m -44.72665,-4.37129 -14.17157,-0.80788 107.44974,-107.43305 107.44975,-107.43306 8.37304,7.94444 c 4.60516,4.36945 17.12722,16.44663 27.82681,26.83818 10.69959,10.39155 18.1106,16.93332 16.46893,14.53725 -1.64168,-2.39606 -13.82354,-15.05401 -27.07083,-28.12878 l -24.08596,-23.7723 -22.87832,21.86408 c -12.58308,12.02524 -62.41137,61.44099 -110.72951,109.81278 l -87.85118,87.9487 16.69534,-0.28124 16.69534,-0.28122 z m 369.7161,-50.27025 c -28.55615,-29.22549 -45.11465,-47.2467 -45.69959,-49.73647 -0.8229,-3.50268 -0.93499,-3.35758 -1.08912,1.40994 -0.16552,5.12008 1.48374,6.9393 45.08983,49.73648 24.8939,24.43211 45.53603,44.42202 45.87139,44.42202 0.33538,0 -19.54227,-20.62439 -44.17251,-45.83197 z"
           id="path13"
           transform="scale(0.26458333)" /><path
           style="fill:#ffffff;stroke-width:3.29309"
           d="m 222.09499,777.74922 c -2.73229,-1.99744 -2.83094,-4.91767 -3.21318,-95.11648 l -0.39435,-93.05578 h -35.54661 c -33.6104,0 -35.70481,-0.1582 -38.45093,-2.90432 -1.59738,-1.59737 -2.90432,-4.03896 -2.90432,-5.42575 0,-3.42606 248.2424,-251.60657 251.66932,-251.60657 1.45578,0 16.01622,12.74271 32.35654,28.31712 16.34032,15.57442 30.26212,28.31712 30.93734,28.31712 1.30752,0 3.01735,-8.31491 3.04385,-14.8023 0.0315,-7.69781 3.28631,-8.43226 37.36919,-8.43226 28.96211,0 31.08032,0.182 33.80264,2.90432 2.78953,2.78953 2.90432,4.84053 2.90432,51.89008 v 48.98576 l 55.90816,55.97607 c 39.98031,40.02887 55.90816,56.8946 55.90816,59.20017 0,1.77324 -1.30694,4.53103 -2.90432,6.1284 -2.74626,2.74627 -4.84053,2.90432 -38.48224,2.90432 h -35.57792 v 91.16296 c 0,80.15934 -0.27286,91.55253 -2.26057,94.3904 l -2.2606,3.22744 H 394.45666 c -144.11469,0 -169.96561,-0.30906 -172.36167,-2.0607 z m 29.51073,-16.44618 -12.6874,-0.48371 -0.40174,-49.68022 -0.40175,-49.68023 -0.34333,50.46256 -0.34334,50.46256 13.43248,-0.29862 13.43248,-0.29861 z M 236.76179,575.15197 c -0.52645,-0.85182 -1.65211,-1.54877 -2.50146,-1.54877 -0.96292,0 -0.85275,0.83322 0.29264,2.21334 1.99169,2.39984 3.77174,1.86428 2.20882,-0.66457 z m -47.1877,-4.0861 -12.27615,-0.49401 106.66655,-106.9367 C 342.6311,404.81998 378.21507,368.53892 363.04,383.0106 347.86493,397.48228 298.85672,445.95911 254.13286,490.7369 l -81.31609,81.41414 14.51673,-0.29558 14.51674,-0.29558 z m 371.43838,-51.21862 c -24.22393,-24.77364 -44.46847,-46.50159 -44.98788,-48.28432 -0.82302,-2.82487 -0.96297,-2.68577 -1.08912,1.0826 -0.12783,3.81848 5.07514,9.45777 44.50917,48.24174 24.55966,24.15481 44.86934,43.93697 45.13263,43.9604 0.26329,0.0234 -19.34087,-20.22678 -43.5648,-45.00042 z M 441.00837,399.70704 c -6.67004,-8.40269 -46.80517,-47.25796 -47.7936,-46.26953 -0.70921,0.7092 49.9649,51.39472 51.63126,51.64289 0.26679,0.0397 -1.46016,-2.37828 -3.83766,-5.37336 z"
           id="path14"
           transform="scale(0.26458333)" /><path
           style="fill:#ffffff;stroke-width:3.29309"
           d="m 222.09499,777.74922 c -2.73229,-1.99744 -2.83094,-4.91767 -3.21318,-95.11648 l -0.39435,-93.05578 h -35.54661 c -33.6104,0 -35.70481,-0.1582 -38.45093,-2.90432 -1.59738,-1.59737 -2.90432,-4.03896 -2.90432,-5.42575 0,-3.46712 248.24549,-251.60657 251.71409,-251.60657 1.51357,0 15.68787,12.39379 32.38519,28.31712 16.33145,15.57442 30.2331,28.31712 30.89257,28.31712 1.28356,0 2.98893,-8.372 3.0152,-14.8023 0.0315,-7.69781 3.28631,-8.43226 37.36919,-8.43226 28.96211,0 31.08032,0.182 33.80264,2.90432 2.78953,2.78953 2.90432,4.84053 2.90432,51.89008 v 48.98576 l 55.90816,55.97607 c 39.98031,40.02887 55.90816,56.8946 55.90816,59.20017 0,1.77324 -1.30694,4.53103 -2.90432,6.1284 -2.74626,2.74627 -4.84053,2.90432 -38.48224,2.90432 h -35.57792 v 91.16296 c 0,80.15934 -0.27286,91.55253 -2.26057,94.3904 l -2.2606,3.22744 H 394.45666 c -144.11469,0 -169.96561,-0.30906 -172.36167,-2.0607 z m 26.61101,-16.44153 -9.77849,-0.50747 -0.41138,-38.77947 -0.41138,-38.77947 -0.33829,39.57136 -0.3383,39.57136 10.52816,-0.28442 10.52816,-0.28442 z M 236.70208,575.05536 c -0.49362,-0.79869 -1.55096,-1.45216 -2.34964,-1.45216 -0.79869,0 -1.0483,0.65347 -0.55468,1.45216 0.49362,0.79869 1.55096,1.45216 2.34965,1.45216 0.79868,0 1.04829,-0.65347 0.55467,-1.45216 z m -49.29612,-3.98769 -10.0878,-0.51451 88.50444,-88.75532 c 48.67744,-48.81544 84.58361,-85.41909 79.79148,-81.34146 -4.79213,4.07764 -45.63196,44.37706 -90.75518,89.55428 l -82.04222,82.14038 12.33854,-0.28442 12.33854,-0.28442 z M 558.88421,517.7819 c -22.99898,-23.51354 -42.28275,-43.93454 -42.85283,-45.38001 -0.91314,-2.31526 -1.04868,-2.25531 -1.13859,0.50361 -0.073,2.2387 12.01021,15.17458 42.37361,45.36392 23.36163,23.2277 42.69133,42.23942 42.9549,42.24827 0.26356,0.009 -18.33813,-19.22227 -41.33709,-42.73579 z M 437.16618,395.86592 c -3.6813,-4.30901 -15.33096,-15.85993 -25.88812,-25.66871 -19.03416,-17.68483 -18.98223,-17.61924 6.20237,7.83456 13.96849,14.11779 25.61814,25.66871 25.88814,25.66871 0.26999,0 -2.52109,-3.52555 -6.20239,-7.83456 z"
           id="path15"
           transform="scale(0.26458333)" /><path
           style="fill:#ffffff;stroke-width:3.29309"
           d="m 222.09499,777.74922 c -2.73229,-1.99744 -2.83094,-4.91767 -3.21318,-95.11648 l -0.39435,-93.05578 h -35.54661 c -33.6104,0 -35.70481,-0.1582 -38.45093,-2.90432 -1.59738,-1.59737 -2.90432,-4.03896 -2.90432,-5.42575 0,-1.40559 55.10677,-57.65676 124.52272,-127.10868 95.88472,-95.93441 125.22772,-124.49348 127.58816,-124.17953 1.68599,0.22425 16.29216,12.98706 32.45816,28.3618 16.16599,15.37475 29.92777,27.95408 30.5817,27.95408 0.65394,0 1.64574,-4.26515 2.204,-9.47812 1.49345,-13.94566 0.97047,-13.75644 38.0215,-13.75644 28.96211,0 31.08032,0.182 33.80264,2.90432 2.78953,2.78953 2.90432,4.84053 2.90432,51.89008 v 48.98576 l 55.90816,55.97607 c 39.98031,40.02887 55.90816,56.8946 55.90816,59.20017 0,1.77324 -1.30694,4.53103 -2.90432,6.1284 -2.74626,2.74627 -4.84053,2.90432 -38.48224,2.90432 h -35.57792 v 91.16296 c 0,80.15934 -0.27286,91.55253 -2.26057,94.3904 l -2.2606,3.22744 H 394.45666 c -144.11469,0 -169.96561,-0.30906 -172.36167,-2.0607 z m 24.43841,-16.43479 -7.59461,-0.53233 -0.42339,-30.05745 -0.42339,-30.05745 -0.33193,30.8584 -0.33192,30.8584 8.34992,-0.26862 8.34992,-0.26862 z m -61.02719,-190.48921 -7.63107,-0.85242 58.88212,-58.81248 c 53.52486,-53.46155 101.98969,-103.10336 100.65881,-103.10336 -0.28851,0 -37.44142,36.92117 -82.56199,82.04704 l -82.0374,82.04704 10.1603,-0.2367 c 10.1468,-0.23638 10.15016,-0.23782 2.52923,-1.08912 z m 372.10056,-54.2193 c -22.11735,-22.56293 -40.75755,-42.33046 -41.42267,-43.92784 -1.183,-2.84121 -1.21128,-2.84249 -1.30133,-0.0588 -0.06,1.85356 14.19753,17.16747 40.89748,43.92783 22.54423,22.59526 41.22585,41.08229 41.51471,41.08229 0.28886,0 -17.57082,-18.46058 -39.68819,-41.02352 z M 433.18144,392.44624 c -5.21277,-5.39114 -15.61216,-15.66453 -23.10977,-22.82975 -7.49759,-7.16523 -3.51107,-2.75429 8.85892,9.80208 12.37001,12.55636 22.76939,22.82975 23.10976,22.82975 0.34037,0 -3.64614,-4.41093 -8.85891,-9.80208 z"
           id="path16"
           transform="scale(0.26458333)" /><path
           style="fill:#ffffff;stroke-width:3.29309"
           d="m 222.09499,777.74922 c -2.73229,-1.99744 -2.83094,-4.91767 -3.21318,-95.11648 l -0.39435,-93.05578 h -35.54661 c -33.6104,0 -35.70481,-0.1582 -38.45093,-2.90432 -1.59738,-1.59737 -2.90432,-4.03896 -2.90432,-5.42575 0,-3.72386 248.28134,-251.62128 251.93826,-251.54868 1.759,0.0349 14.65331,11.25963 32.50071,28.29241 16.27168,15.52899 30.12776,27.89901 30.79129,27.48893 0.66352,-0.41009 1.65047,-4.6705 2.19319,-9.46759 1.47667,-13.05202 1.24242,-12.97196 37.95279,-12.97196 28.96211,0 31.08032,0.182 33.80264,2.90432 2.78953,2.78953 2.90432,4.84053 2.90432,51.89008 v 48.98576 l 55.90816,55.97607 c 39.98031,40.02887 55.90816,56.8946 55.90816,59.20017 0,1.77324 -1.30694,4.53103 -2.90432,6.1284 -2.74626,2.74627 -4.84053,2.90432 -38.48224,2.90432 h -35.57792 v 91.16296 c 0,80.15934 -0.27286,91.55253 -2.26057,94.3904 l -2.2606,3.22744 H 394.45666 c -144.11469,0 -169.96561,-0.30906 -172.36167,-2.0607 z m 22.99347,-16.42672 -6.13522,-0.55408 -0.43913,-22.78981 -0.43914,-22.78981 -0.3234,23.5976 -0.32341,23.5976 6.89776,-0.2537 6.89776,-0.2537 z m -61.01466,-190.47868 -6.15916,-0.87102 48.99788,-49.12965 c 49.07667,-49.20865 104.16306,-105.52539 103.22,-105.52539 -0.27626,0 -35.78523,35.28749 -78.90884,78.41664 l -78.40655,78.41664 8.70791,-0.2181 c 8.17555,-0.20478 8.33137,-0.27136 2.54876,-1.08912 z m 382.2078,-45.52494 c -15.19315,-15.37474 -32.99398,-33.59212 -39.55739,-40.48304 -6.56341,-6.89093 -11.93349,-11.86482 -11.93349,-11.05307 0,1.49238 76.84956,79.49019 78.31997,79.49019 0.43716,0 -11.63594,-12.57933 -26.82909,-27.95408 z M 424.03072,383.37024 c -9.55929,-9.58425 -17.70726,-17.42592 -18.1066,-17.42592 -0.39935,0 7.09515,7.84167 16.65444,17.42592 9.5593,9.58426 17.70726,17.42592 18.10661,17.42592 0.39934,0 -7.09515,-7.84166 -16.65445,-17.42592 z"
           id="path17"
           transform="scale(0.26458333)" /><path
           style="fill:#ffffff;stroke-width:3.29309"
           d="m 222.09499,777.74922 c -2.73229,-1.99744 -2.83094,-4.91767 -3.21318,-95.11648 l -0.39435,-93.05578 h -35.54661 c -33.6104,0 -35.70481,-0.1582 -38.45093,-2.90432 -1.59738,-1.59737 -2.90432,-4.03896 -2.90432,-5.42575 0,-3.72403 248.28142,-251.62133 251.93826,-251.54849 1.75232,0.0349 14.46896,11.04461 31.86877,27.59105 15.92413,15.14312 29.74623,27.53295 30.71581,27.53295 1.07459,0 2.15857,-3.40931 2.77633,-8.73204 1.52259,-13.11869 1.32324,-13.05036 38.07707,-13.05036 28.96211,0 31.08032,0.182 33.80264,2.90432 2.78953,2.78953 2.90432,4.84053 2.90432,51.89008 v 48.98576 l 55.90816,55.97607 c 39.98031,40.02887 55.90816,56.8946 55.90816,59.20017 0,1.77324 -1.30694,4.53103 -2.90432,6.1284 -2.74626,2.74627 -4.84053,2.90432 -38.48224,2.90432 h -35.57792 v 91.16296 c 0,80.15934 -0.27286,91.55253 -2.26057,94.3904 l -2.2606,3.22744 H 394.45666 c -144.11469,0 -169.96561,-0.30906 -172.36167,-2.0607 z m 21.54883,-16.41243 -4.67553,-0.5824 -0.45608,-17.70023 -0.45607,-17.70024 -0.31399,18.51504 -0.31399,18.51504 5.4456,-0.2324 c 5.29861,-0.22612 5.31939,-0.24812 0.77006,-0.81481 z m -61.13122,-190.46603 -4.81604,-0.89796 5.31064,-5.08256 c 9.48391,-9.07659 139.01722,-140.85952 138.45498,-140.85952 -0.30002,0 -33.86776,33.32707 -74.59498,74.06016 l -74.04948,74.06016 7.25546,-0.19116 c 6.34076,-0.16707 6.6483,-0.30437 2.43942,-1.08912 z m 378.73969,-50.63444 c -39.99295,-40.71209 -47.87898,-48.53332 -43.55972,-43.20176 4.18559,5.16656 73.0271,74.78624 73.95031,74.78624 0.34979,0 -13.32597,-14.21301 -30.39059,-31.58448 z M 439.2784,398.9562 c 0,-0.2133 -7.35156,-7.56486 -16.3368,-16.3368 l -16.3368,-15.949 15.949,16.3368 c 14.81405,15.17427 16.7246,16.99621 16.7246,15.949 z"
           id="path18"
           transform="scale(0.26458333)" /><path
           style="fill:#ffffff;stroke-width:3.29309"
           d="m 222.09499,777.74922 c -2.73229,-1.99744 -2.83094,-4.91767 -3.21318,-95.11648 l -0.39435,-93.05578 h -35.54661 c -33.6104,0 -35.70481,-0.1582 -38.45093,-2.90432 -1.59738,-1.59737 -2.90432,-4.03896 -2.90432,-5.42575 0,-3.72254 248.28088,-251.62092 251.93826,-251.55013 1.75009,0.0339 14.52718,11.06212 31.95902,27.58468 15.97376,15.14053 29.77564,27.5311 30.67083,27.5346 0.91224,0.004 2.05919,-3.80806 2.60948,-8.67202 1.48673,-13.14099 1.37896,-13.10402 38.19865,-13.10402 28.96211,0 31.08032,0.182 33.80264,2.90432 2.78953,2.78953 2.90432,4.84053 2.90432,51.89008 v 48.98576 l 55.90816,55.97607 c 39.98031,40.02887 55.90816,56.8946 55.90816,59.20017 0,1.77324 -1.30694,4.53103 -2.90432,6.1284 -2.74626,2.74627 -4.84053,2.90432 -38.48224,2.90432 h -35.57792 v 91.16296 c 0,80.15934 -0.27286,91.55253 -2.26057,94.3904 l -2.2606,3.22744 H 394.45666 c -144.11469,0 -169.96561,-0.30906 -172.36167,-2.0607 z m 20.83025,-16.40036 c -3.93589,-0.59907 -3.94268,-0.62163 -4.41559,-14.66706 l -0.47364,-14.06708 -0.30393,14.88464 -0.30392,14.88464 4.71952,-0.21757 c 4.31724,-0.19904 4.38351,-0.26873 0.77756,-0.81757 z M 181.89575,570.89012 c -4.43522,-1.02205 -7.41437,2.16526 86.70826,-92.76644 21.57876,-21.76425 38.90917,-39.57136 38.51202,-39.57136 -0.39717,0 -30.77649,30.05971 -67.50963,66.79936 l -66.78752,66.79936 6.5288,-0.1718 c 5.2599,-0.13842 5.75513,-0.3501 2.54807,-1.08912 z m 375.71741,-54.2842 c -17.47098,-17.77081 -33.41057,-33.94424 -35.42133,-35.94096 l -3.65591,-3.6304 2.77934,3.6304 c 3.25117,4.2467 66.48027,68.25152 67.42431,68.25152 0.35146,0 -13.65544,-14.53975 -31.12641,-32.31056 z M 437.82624,397.50012 c 0,-0.21545 -6.37135,-6.5868 -14.15856,-14.15856 l -14.15856,-13.76684 13.76684,14.15856 c 12.7865,13.15032 14.55028,14.81914 14.55028,13.76684 z"
           id="path19"
           transform="scale(0.26458333)" /><path
           style="fill:#ffffff;stroke-width:3.29309"
           d="m 222.09499,777.74922 c -2.73229,-1.99744 -2.83094,-4.91767 -3.21318,-95.11648 l -0.39435,-93.05578 h -35.54661 c -33.6104,0 -35.70481,-0.1582 -38.45093,-2.90432 -1.59738,-1.59737 -2.90432,-4.03896 -2.90432,-5.42575 0,-3.51511 248.24924,-251.60657 251.76659,-251.60657 1.51252,0 10.83269,7.65809 20.76613,17.06288 29.26956,27.71188 41.21601,38.23982 42.49511,37.4493 0.66198,-0.40913 1.65318,-4.34209 2.20265,-8.73992 1.53913,-12.31883 1.70485,-12.37258 38.14576,-12.37258 28.96211,0 31.08032,0.182 33.80264,2.90432 2.78953,2.78953 2.90432,4.84053 2.90432,51.89008 v 48.98576 l 55.90816,55.97607 c 39.98031,40.02887 55.90816,56.8946 55.90816,59.20017 0,1.77324 -1.30694,4.53103 -2.90432,6.1284 -2.74626,2.74627 -4.84053,2.90432 -38.48224,2.90432 h -35.57792 v 91.16296 c 0,80.15934 -0.27286,91.55253 -2.26057,94.3904 l -2.2606,3.22744 H 394.45666 c -144.11469,0 -169.96561,-0.30906 -172.36167,-2.0607 z m 20.1121,-16.38227 c -2.92262,-0.56625 -3.25183,-1.61429 -3.7012,-11.78256 l -0.49325,-11.16103 -0.29224,11.98032 -0.29224,11.98032 3.99344,-0.19775 c 3.33381,-0.1651 3.46355,-0.30042 0.78549,-0.8193 z M 181.07711,570.91717 c -2.98943,-0.84343 2.961,-7.347 55.67099,-60.84597 32.46,-32.94588 58.79526,-59.9016 58.5228,-59.9016 -0.27247,0 -27.93537,27.44583 -61.47314,60.99072 l -60.97775,60.99072 5.80215,-0.14475 c 4.39822,-0.10972 4.99224,-0.37326 2.45495,-1.08912 z M 585.94656,545.6355 c 0,-0.20715 -13.23281,-13.43996 -29.40624,-29.40624 l -29.40624,-29.02958 29.02958,29.40624 c 26.97261,27.32258 29.7829,30.06178 29.7829,29.02958 z M 427.66112,387.00064 c -5.95018,-5.99016 -11.14524,-10.8912 -11.54458,-10.8912 -0.39935,0 4.14224,4.90104 10.09242,10.8912 5.95018,5.99016 11.14524,10.8912 11.54459,10.8912 0.39934,0 -4.14225,-4.90104 -10.09243,-10.8912 z"
           id="path20"
           transform="scale(0.26458333)" /><path
           style="fill:#ffffff;stroke-width:3.29309"
           d="m 222.09499,777.74922 c -2.73229,-1.99744 -2.83094,-4.91767 -3.21318,-95.11648 l -0.39435,-93.05578 h -35.54661 c -33.6104,0 -35.70481,-0.1582 -38.45093,-2.90432 -1.59738,-1.59737 -2.90432,-4.03896 -2.90432,-5.42575 0,-3.51511 248.24924,-251.60657 251.76659,-251.60657 1.51171,0 10.8446,7.6632 20.78061,17.06288 26.86881,25.41844 41.34657,38.15018 42.54197,37.41138 0.58692,-0.36273 1.46954,-4.10932 1.9614,-8.32577 1.47536,-12.64752 1.77855,-12.74881 38.16342,-12.74881 29.12436,0 31.24161,0.18105 33.96489,2.90432 2.78953,2.78953 2.90432,4.84053 2.90432,51.89008 v 48.98576 l 55.90816,55.97607 c 39.98031,40.02887 55.90816,56.8946 55.90816,59.20017 0,1.77324 -1.30694,4.53103 -2.90432,6.1284 -2.74626,2.74627 -4.84053,2.90432 -38.48224,2.90432 h -35.57792 v 91.16296 c 0,80.15934 -0.27286,91.55253 -2.26057,94.3904 l -2.2606,3.22744 H 394.45666 c -144.11469,0 -169.96561,-0.30906 -172.36167,-2.0607 z m 19.3963,-16.3528 c -1.87657,-0.49404 -2.59706,-2.63846 -2.99278,-8.90755 l -0.52119,-8.25687 -0.27458,9.076 c -0.25926,8.56981 -0.0924,9.06661 2.99278,8.90755 2.34725,-0.12102 2.57134,-0.3517 0.79577,-0.81913 z M 180.32848,570.90493 c -2.16189,-0.85208 6.79519,-10.62528 49.14961,-53.62785 28.48632,-28.92223 51.56397,-52.58588 51.28369,-52.58588 -0.28029,0 -24.68146,24.17847 -54.22482,53.72992 -51.71763,51.73181 -53.52646,53.72613 -48.64,53.62785 3.60614,-0.0725 4.30996,-0.40367 2.43152,-1.14404 z m 402.71376,-28.17664 c 0,-0.20875 -10.94565,-11.1544 -24.32368,-24.32368 l -24.32368,-23.94413 23.94413,24.32368 c 22.24509,22.5977 24.70323,24.98031 24.70323,23.94413 z M 436.37408,396.03118 c 0,-0.22467 -4.0842,-4.30887 -9.076,-9.076 l -9.076,-8.6675 8.66751,9.076 c 8.05137,8.43083 9.48449,9.74051 9.48449,8.6675 z"
           id="path21"
           transform="scale(0.26458333)" /><path
           style="fill:#ffffff;stroke-width:3.29309"
           d="m 222.09499,777.74922 c -2.73229,-1.99744 -2.83094,-4.91767 -3.21318,-95.11648 l -0.39435,-93.05578 h -35.54661 c -33.6104,0 -35.70481,-0.1582 -38.45093,-2.90432 -1.59738,-1.59737 -2.90432,-4.03896 -2.90432,-5.42575 0,-3.51597 248.2493,-251.60657 251.76752,-251.60657 1.50979,0 10.19403,7.02483 19.29829,15.61072 26.30877,24.81082 42.98846,39.50315 44.08042,38.82828 0.55553,-0.34334 1.41248,-4.07406 1.90434,-8.29051 1.47536,-12.64752 1.77855,-12.74881 38.16342,-12.74881 29.12436,0 31.24161,0.18105 33.96489,2.90432 2.78953,2.78953 2.90432,4.84053 2.90432,51.89008 v 48.98576 l 55.90816,55.97607 c 39.98031,40.02887 55.90816,56.8946 55.90816,59.20017 0,1.77324 -1.30694,4.53103 -2.90432,6.1284 -2.74626,2.74627 -4.84053,2.90432 -38.48224,2.90432 h -35.57792 v 91.16296 c 0,80.15934 -0.27286,91.55253 -2.26057,94.3904 l -2.2606,3.22744 H 394.45666 c -144.11469,0 -169.96561,-0.30906 -172.36167,-2.0607 z m 18.7006,-16.50043 c -0.94332,-0.5999 -1.97273,-4.02062 -2.28758,-7.60161 l -0.57244,-6.51086 -0.25371,7.62384 c -0.21286,6.39672 0.15534,7.62027 2.28758,7.60161 1.69063,-0.0148 1.96717,-0.38735 0.82615,-1.11298 z M 179.64841,570.91913 c -1.32276,-0.83923 11.20809,-14.56566 42.73279,-46.80993 l 44.60437,-45.62248 -40.28726,39.9344 c -22.15799,21.96392 -42.91891,43.03839 -46.13537,46.83216 -5.53648,6.53021 -5.66679,6.89657 -2.44552,6.87553 2.32511,-0.0152 2.80992,-0.39825 1.53099,-1.20968 z M 580.13792,539.8168 c 0,-0.2127 -7.67829,-7.891 -17.06288,-17.06288 l -17.06288,-16.67616 16.67616,17.06288 c 15.48978,15.84901 17.4496,17.72196 17.4496,16.67616 z m -145.216,-145.26065 c 0,-0.23725 -2.77725,-3.0145 -6.17168,-6.17168 l -6.17168,-5.74031 5.74032,6.17168 c 5.33843,5.7396 6.60304,6.83899 6.60304,5.74031 z"
           id="path22"
           transform="scale(0.26458333)" /><path
           style="fill:#ffffff;stroke-width:3.29309"
           d="m 222.09499,777.74922 c -2.73229,-1.99744 -2.83094,-4.91767 -3.21318,-95.11648 l -0.39435,-93.05578 h -35.54661 c -33.6104,0 -35.70481,-0.1582 -38.45093,-2.90432 -1.59738,-1.59737 -2.90432,-4.03896 -2.90432,-5.42575 0,-3.51597 248.2493,-251.60657 251.76752,-251.60657 1.50979,0 10.207,7.02483 19.32711,15.61072 25.1998,23.72368 43.07056,39.43459 44.11889,38.7867 0.51852,-0.32047 1.34519,-4.03248 1.83705,-8.24893 1.47536,-12.64752 1.77855,-12.74881 38.16342,-12.74881 29.12436,0 31.24161,0.18105 33.96489,2.90432 2.78953,2.78953 2.90432,4.84053 2.90432,51.89008 v 48.98576 l 55.90816,55.97607 c 39.98031,40.02887 55.90816,56.8946 55.90816,59.20017 0,1.77324 -1.30694,4.53103 -2.90432,6.1284 -2.74626,2.74627 -4.84053,2.90432 -38.48224,2.90432 h -35.57792 v 91.16296 c 0,80.15934 -0.27286,91.55253 -2.26057,94.3904 l -2.2606,3.22744 H 394.45666 c -144.11469,0 -169.96561,-0.30906 -172.36167,-2.0607 z m 18.71867,-16.48926 c -0.93339,-0.59377 -1.97238,-3.36101 -2.30888,-6.14945 -0.5831,-4.83187 -0.62273,-4.78015 -0.84422,1.10181 -0.18849,5.00563 0.24774,6.16749 2.30888,6.14945 1.66695,-0.0146 1.95741,-0.39367 0.84422,-1.10181 z m -61.1123,-190.3081 c -1.25788,-0.79867 7.84924,-11.2021 29.53629,-33.74048 l 31.35493,-32.58578 -32.07757,32.56868 c -17.64266,17.91278 -32.07757,33.106 -32.07757,33.76272 0,0.65673 1.14358,1.18404 2.54128,1.17181 1.81741,-0.0159 2.02325,-0.35115 0.72264,-1.17695 z m 398.9844,-32.59761 c 0,-0.2184 -5.39114,-5.60954 -11.98032,-11.98032 l -11.98032,-11.58321 11.58321,11.98032 c 10.75814,11.12696 12.37743,12.64235 12.37743,11.58321 z"
           id="path23"
           transform="scale(0.26458333)" /><path
           style="fill:#ffffff;stroke-width:3.29309"
           d="m 222.09499,777.74922 c -2.73229,-1.99744 -2.83094,-4.91767 -3.21318,-95.11648 l -0.39435,-93.05578 h -35.54661 c -33.6104,0 -35.70481,-0.1582 -38.45093,-2.90432 -1.59738,-1.59737 -2.90432,-4.03896 -2.90432,-5.42575 0,-3.70601 248.27495,-251.61638 251.93826,-251.56829 1.73103,0.0227 12.35675,8.93028 26.15038,21.92189 27.68401,26.07434 35.01155,32.29119 36.77539,31.20108 0.72689,-0.44924 1.67027,-3.91002 2.09639,-7.6906 1.33124,-11.81067 2.15616,-12.07097 38.25357,-12.07097 29.12436,0 31.24161,0.18105 33.96489,2.90432 2.78953,2.78953 2.90432,4.84053 2.90432,51.89008 v 48.98576 l 55.90816,55.97607 c 39.98031,40.02887 55.90816,56.8946 55.90816,59.20017 0,1.77324 -1.30694,4.53103 -2.90432,6.1284 -2.74626,2.74627 -4.84053,2.90432 -38.48224,2.90432 h -35.57792 v 91.16296 c 0,80.15934 -0.27286,91.55253 -2.26057,94.3904 l -2.2606,3.22744 H 394.45666 c -144.11469,0 -169.96561,-0.30906 -172.36167,-2.0607 z m 18.73156,-16.48129 c -0.92629,-0.58939 -1.97195,-3.0299 -2.3237,-5.42337 -0.58001,-3.94676 -0.65978,-3.84497 -0.85711,1.09384 -0.17215,4.3085 0.31307,5.44096 2.3237,5.42337 1.64976,-0.0144 1.95045,-0.39818 0.85711,-1.09384 z M 179.55891,571.14067 c -1.34659,-0.53632 0.47356,-3.34439 5.80864,-8.96135 l 7.76973,-8.18028 -8.34992,7.93728 c -8.83566,8.399 -9.92064,10.28559 -5.80864,10.10007 1.74518,-0.0787 1.92694,-0.35932 0.58019,-0.89572 z m 391.86605,-40.19839 c 0,-0.30154 -1.14357,-1.44511 -2.54128,-2.54128 -2.30321,-1.80629 -2.35457,-1.75493 -0.54827,0.54828 1.89705,2.41894 3.08955,3.18819 3.08955,1.993 z"
           id="path24"
           transform="scale(0.26458333)" /><path
           style="fill:#ffffff;stroke-width:3.29309"
           d="m 222.09499,777.74922 c -2.73229,-1.99744 -2.83094,-4.91767 -3.21318,-95.11648 l -0.39435,-93.05578 h -35.54661 c -33.6104,0 -35.70481,-0.1582 -38.45093,-2.90432 -1.59738,-1.59737 -2.90432,-4.03896 -2.90432,-5.42575 0,-3.71019 248.27646,-251.61754 251.93826,-251.56369 1.7142,0.0252 11.89244,8.46929 24.69822,20.49017 28.10045,26.3781 36.60106,33.63343 38.22803,32.62791 0.72663,-0.44909 1.66979,-3.90973 2.09591,-7.69031 1.33124,-11.81067 2.15616,-12.07097 38.25357,-12.07097 29.12436,0 31.24161,0.18105 33.96489,2.90432 2.78953,2.78953 2.90432,4.84053 2.90432,51.89008 v 48.98576 l 55.90816,55.97607 c 39.98031,40.02887 55.90816,56.8946 55.90816,59.20017 0,1.77324 -1.30694,4.53103 -2.90432,6.1284 -2.74626,2.74627 -4.84053,2.90432 -38.48224,2.90432 h -35.57792 v 91.16296 c 0,80.15934 -0.27286,91.55253 -2.26057,94.3904 l -2.2606,3.22744 H 394.45666 c -144.11469,0 -169.96561,-0.30906 -172.36167,-2.0607 z m 18.60053,-16.32695 c -0.99836,-0.40285 -1.891,-2.47505 -1.98365,-4.60488 -0.11357,-2.61076 -0.39015,-3.01683 -0.8489,-1.24633 -0.90672,3.49943 0.48329,6.84023 2.78698,6.6983 1.45744,-0.0898 1.46732,-0.2734 0.0456,-0.84709 z"
           id="path25"
           transform="scale(0.26458333)" /><path
           style="fill:#ffffff;stroke-width:3.29309"
           d="m 222.09499,777.74922 c -2.73229,-1.99744 -2.83094,-4.91767 -3.21318,-95.11648 l -0.39435,-93.05578 h -35.54661 c -33.6104,0 -35.70481,-0.1582 -38.45093,-2.90432 -1.59738,-1.59737 -2.90432,-4.03896 -2.90432,-5.42575 0,-3.517 248.24938,-251.60657 251.76865,-251.60657 1.5104,0 9.58225,6.37135 17.93743,14.15856 30.02937,27.98804 43.25889,39.55958 44.68589,39.0857 0.79833,-0.2651 1.91049,-3.69501 2.47148,-7.62201 1.72043,-12.04327 2.28301,-12.22257 38.35054,-12.22257 29.12436,0 31.24161,0.18105 33.96489,2.90432 2.78953,2.78953 2.90432,4.84053 2.90432,51.89008 v 48.98576 l 55.90816,55.97607 c 39.98031,40.02887 55.90816,56.8946 55.90816,59.20017 0,1.77324 -1.30694,4.53103 -2.90432,6.1284 -2.74626,2.74627 -4.84053,2.90432 -38.48224,2.90432 h -35.57792 v 91.16296 c 0,80.15934 -0.27286,91.55253 -2.26057,94.3904 l -2.2606,3.22744 H 394.45666 c -144.11469,0 -169.96561,-0.30906 -172.36167,-2.0607 z m 17.06974,-19.35866 c -0.42076,-2.19639 -1.04525,-3.15503 -1.38777,-2.13033 -0.61767,1.84787 0.4873,6.12377 1.58249,6.12377 0.31366,0 0.22603,-1.79704 -0.19472,-3.99344 z"
           id="path26"
           transform="scale(0.26458333)" /><path
           style="fill:#ffffff;stroke-width:3.29309"
           d="m 222.09499,777.74922 c -2.73229,-1.99744 -2.83094,-4.91767 -3.21318,-95.11648 l -0.39435,-93.05578 h -35.54661 c -33.6104,0 -35.70481,-0.1582 -38.45093,-2.90432 -1.59738,-1.59737 -2.90432,-4.03896 -2.90432,-5.42575 0,-3.70748 248.27548,-251.61679 251.93826,-251.56668 1.70851,0.0234 11.63433,8.20169 23.97214,19.75171 11.58098,10.8415 24.94705,22.99546 29.7024,27.00879 9.54121,8.05243 9.76827,7.98309 11.64661,-3.55689 1.53031,-9.40179 3.24192,-9.84382 38.11683,-9.84382 28.96211,0 31.08032,0.182 33.80264,2.90432 2.78953,2.78953 2.90432,4.84053 2.90432,51.89008 v 48.98576 l 55.90816,55.97607 c 39.98031,40.02887 55.90816,56.8946 55.90816,59.20017 0,1.77324 -1.30694,4.53103 -2.90432,6.1284 -2.74626,2.74627 -4.84053,2.90432 -38.48224,2.90432 h -35.57792 v 91.16296 c 0,80.15934 -0.27286,91.55253 -2.26057,94.3904 l -2.2606,3.22744 H 394.45666 c -144.11469,0 -169.96561,-0.30906 -172.36167,-2.0607 z m 17.19103,-18.32713 c -0.42601,-1.62906 -1.09903,-2.63746 -1.49561,-2.24087 -0.7856,0.7856 0.60206,5.20278 1.63447,5.20278 0.34963,0 0.28715,-1.33286 -0.13886,-2.96191 z"
           id="path27"
           transform="scale(0.26458333)" /><path
           style="fill:#ffffff;stroke-width:3.29309"
           d="m 222.09499,777.74922 c -2.73229,-1.99744 -2.83094,-4.91767 -3.21318,-95.11648 l -0.39435,-93.05578 h -35.54661 c -33.6104,0 -35.70481,-0.1582 -38.45093,-2.90432 -1.59738,-1.59737 -2.90432,-4.03896 -2.90432,-5.42575 0,-3.70748 248.27548,-251.61679 251.93826,-251.56668 1.70678,0.0233 11.64685,8.2019 23.97214,19.72396 29.12017,27.2224 35.95974,32.95675 38.25723,32.07512 1.09295,-0.41941 2.36638,-3.58957 2.82982,-7.04481 1.48556,-11.07567 2.55482,-11.39448 38.21654,-11.39448 29.12436,0 31.24161,0.18105 33.96489,2.90432 2.78953,2.78953 2.90432,4.84053 2.90432,51.89008 v 48.98576 l 55.90816,55.97607 c 39.98031,40.02887 55.90816,56.8946 55.90816,59.20017 0,1.77324 -1.30694,4.53103 -2.90432,6.1284 -2.74626,2.74627 -4.84053,2.90432 -38.48224,2.90432 h -35.57792 v 91.16296 c 0,80.15934 -0.27286,91.55253 -2.26057,94.3904 l -2.2606,3.22744 H 394.45666 c -144.11469,0 -169.96561,-0.30906 -172.36167,-2.0607 z m 17.19103,-18.32713 c -0.42601,-1.62906 -1.09903,-2.63746 -1.49561,-2.24087 -0.7856,0.7856 0.60206,5.20278 1.63447,5.20278 0.34963,0 0.28715,-1.33286 -0.13886,-2.96191 z"
           id="path28"
           transform="scale(0.26458333)" /><path
           style="fill:#ffffff;stroke-width:3.29309"
           d="m 222.09499,777.74922 c -2.73229,-1.99744 -2.83094,-4.91767 -3.21318,-95.11648 l -0.39435,-93.05578 h -35.54661 c -33.6104,0 -35.70481,-0.1582 -38.45093,-2.90432 -1.59738,-1.59737 -2.90432,-4.03896 -2.90432,-5.42575 0,-3.69516 248.27103,-251.61336 251.93826,-251.58021 1.71253,0.0155 11.30565,7.86541 23.24606,19.02195 26.04003,24.33053 36.93475,33.50326 38.98224,32.82076 0.90025,-0.30008 2.12231,-3.43488 2.71571,-6.96622 1.88891,-11.24131 2.76151,-11.50317 38.33172,-11.50317 29.12436,0 31.24161,0.18105 33.96489,2.90432 2.78953,2.78953 2.90432,4.84053 2.90432,51.89008 v 48.98576 l 55.90816,55.97607 c 39.98031,40.02887 55.90816,56.8946 55.90816,59.20017 0,1.77324 -1.30694,4.53103 -2.90432,6.1284 -2.74626,2.74627 -4.84053,2.90432 -38.48224,2.90432 h -35.57792 v 91.16296 c 0,80.15934 -0.27286,91.55253 -2.26057,94.3904 l -2.2606,3.22744 H 394.45666 c -144.11469,0 -169.96561,-0.30906 -172.36167,-2.0607 z m 17.19103,-18.32713 c -0.42601,-1.62906 -1.09903,-2.63746 -1.49561,-2.24087 -0.7856,0.7856 0.60206,5.20278 1.63447,5.20278 0.34963,0 0.28715,-1.33286 -0.13886,-2.96191 z"
           id="path29"
           transform="scale(0.26458333)" /><path
           style="fill:#ffffff;stroke-width:3.29309"
           d="m 222.09499,777.74922 c -2.73229,-1.99744 -2.83094,-4.91767 -3.21318,-95.11648 l -0.39435,-93.05578 h -35.54661 c -33.6104,0 -35.70481,-0.1582 -38.45093,-2.90432 -1.59738,-1.59737 -2.90432,-4.03896 -2.90432,-5.42575 0,-3.477 248.24625,-251.60657 251.72489,-251.60657 2.82964,0 4.32884,1.26714 35.88098,30.327 23.29189,21.45208 25.77724,23.28665 27.61455,20.38378 0.71829,-1.13488 1.316,-3.89017 1.32823,-6.12287 0.0129,-2.351 1.52233,-5.55954 3.58663,-7.62384 3.56383,-3.56383 3.56928,-3.56439 34.85184,-3.56439 29.35123,0 31.46718,0.17973 34.19176,2.90432 2.78953,2.78953 2.90432,4.84053 2.90432,51.89008 v 48.98576 l 55.90816,55.97607 c 39.98031,40.02887 55.90816,56.8946 55.90816,59.20017 0,1.77324 -1.30694,4.53103 -2.90432,6.1284 -2.74626,2.74627 -4.84053,2.90432 -38.48224,2.90432 h -35.57792 v 91.16296 c 0,80.15934 -0.27286,91.55253 -2.26057,94.3904 l -2.2606,3.22744 H 394.45666 c -144.11469,0 -169.96561,-0.30906 -172.36167,-2.0607 z"
           id="path30"
           transform="scale(0.26458333)" /><path
           style="fill:#ffffff;stroke-width:3.29309"
           d="m 222.09499,777.74922 c -2.73229,-1.99744 -2.83094,-4.91767 -3.21318,-95.11648 l -0.39435,-93.05578 h -35.54661 c -33.6104,0 -35.70481,-0.1582 -38.45093,-2.90432 -1.59738,-1.59737 -2.90432,-4.03896 -2.90432,-5.42575 0,-3.68786 248.26838,-251.61131 251.93826,-251.58823 1.73867,0.0109 13.46838,9.76061 29.0547,24.1501 30.12441,27.81125 32.33791,29.52775 34.22746,26.54234 0.71829,-1.13488 1.316,-3.89017 1.32823,-6.12287 0.0129,-2.351 1.52233,-5.55954 3.58663,-7.62384 3.56383,-3.56383 3.56928,-3.56439 34.85184,-3.56439 29.35123,0 31.46718,0.17973 34.19176,2.90432 2.78953,2.78953 2.90432,4.84053 2.90432,51.89008 v 48.98576 l 55.90816,55.97607 c 39.98031,40.02887 55.90816,56.8946 55.90816,59.20017 0,1.77324 -1.30694,4.53103 -2.90432,6.1284 -2.74626,2.74627 -4.84053,2.90432 -38.48224,2.90432 h -35.57792 v 91.16296 c 0,80.15934 -0.27286,91.55253 -2.26057,94.3904 l -2.2606,3.22744 H 394.45666 c -144.11469,0 -169.96561,-0.30906 -172.36167,-2.0607 z"
           id="path31"
           transform="scale(0.26458333)" /><path
           style="fill:#ffffff;stroke-width:3.29309"
           d="m 222.09499,777.74922 c -2.73229,-1.99744 -2.83094,-4.91767 -3.21318,-95.11648 l -0.39435,-93.05578 h -35.54661 c -33.6104,0 -35.70481,-0.1582 -38.45093,-2.90432 -1.59738,-1.59737 -2.90432,-4.03896 -2.90432,-5.42575 0,-3.69043 248.26932,-251.61203 251.93826,-251.58541 1.7281,0.0125 13.2674,9.53967 28.32862,23.38881 30.17313,27.74489 33.1853,30.09216 34.97975,27.25839 0.70387,-1.11155 1.28979,-3.84775 1.30202,-6.08045 0.0129,-2.351 1.52233,-5.55954 3.58663,-7.62384 3.56383,-3.56383 3.56928,-3.56439 34.85184,-3.56439 29.35123,0 31.46718,0.17973 34.19176,2.90432 2.78953,2.78953 2.90432,4.84053 2.90432,51.89008 v 48.98576 l 55.90816,55.97607 c 39.98031,40.02887 55.90816,56.8946 55.90816,59.20017 0,1.77324 -1.30694,4.53103 -2.90432,6.1284 -2.74626,2.74627 -4.84053,2.90432 -38.48224,2.90432 h -35.57792 v 91.16296 c 0,80.15934 -0.27286,91.55253 -2.26057,94.3904 l -2.2606,3.22744 H 394.45666 c -144.11469,0 -169.96561,-0.30906 -172.36167,-2.0607 z"
           id="path32"
           transform="scale(0.26458333)" /><path
           style="fill:#ffffff;stroke-width:3.29309"
           d="m 222.09499,777.74922 c -2.73229,-1.99744 -2.83094,-4.91767 -3.21318,-95.11648 l -0.39435,-93.05578 h -35.54661 c -33.6104,0 -35.70481,-0.1582 -38.45093,-2.90432 -1.59738,-1.59737 -2.90432,-4.03896 -2.90432,-5.42575 0,-3.69718 248.27177,-251.61393 251.93826,-251.57799 1.71599,0.0168 13.07416,9.35308 27.60254,22.6889 31.02727,28.48041 33.92956,30.75901 35.67178,28.00598 0.7226,-1.14185 1.32384,-3.90285 1.33607,-6.13555 0.0129,-2.351 1.52233,-5.55954 3.58663,-7.62384 3.56383,-3.56383 3.56928,-3.56439 34.85184,-3.56439 29.35123,0 31.46718,0.17973 34.19176,2.90432 2.78953,2.78953 2.90432,4.84053 2.90432,51.89008 v 48.98576 l 55.90816,55.97607 c 39.98031,40.02887 55.90816,56.8946 55.90816,59.20017 0,1.77324 -1.30694,4.53103 -2.90432,6.1284 -2.74626,2.74627 -4.84053,2.90432 -38.48224,2.90432 h -35.57792 v 91.16296 c 0,80.15934 -0.27286,91.55253 -2.26057,94.3904 l -2.2606,3.22744 H 394.45666 c -144.11469,0 -169.96561,-0.30906 -172.36167,-2.0607 z"
           id="path33"
           transform="scale(0.26458333)" /><path
           style="fill:#ffffff;stroke-width:3.29309"
           d="m 222.09499,777.74922 c -2.73229,-1.99744 -2.83094,-4.91767 -3.21318,-95.11648 l -0.39435,-93.05578 h -35.54661 c -33.6104,0 -35.70481,-0.1582 -38.45093,-2.90432 -1.59738,-1.59737 -2.90432,-4.03896 -2.90432,-5.42575 0,-3.69444 248.27077,-251.61316 251.93826,-251.58101 1.72325,0.0151 13.30964,9.57432 28.32862,23.37221 13.97704,12.84066 26.87808,24.33677 28.66895,25.54691 4.52162,3.05536 7.63505,1.44538 7.63505,-3.94815 0,-2.80766 1.32459,-5.79265 3.5644,-8.03246 3.56383,-3.56383 3.56928,-3.56439 34.85184,-3.56439 29.35123,0 31.46718,0.17973 34.19176,2.90432 2.78953,2.78953 2.90432,4.84053 2.90432,51.89008 v 48.98576 l 55.90816,55.97607 c 39.98031,40.02887 55.90816,56.8946 55.90816,59.20017 0,1.77324 -1.30694,4.53103 -2.90432,6.1284 -2.74626,2.74627 -4.84053,2.90432 -38.48224,2.90432 h -35.57792 v 91.16296 c 0,80.15934 -0.27286,91.55253 -2.26057,94.3904 l -2.2606,3.22744 H 394.45666 c -144.11469,0 -169.96561,-0.30906 -172.36167,-2.0607 z"
           id="path34"
           transform="scale(0.26458333)" /><path
           style="fill:#ffffff;stroke-width:3.29309"
           d="m 222.09499,777.74922 c -2.73229,-1.99744 -2.83094,-4.91767 -3.21318,-95.11648 l -0.39435,-93.05578 h -35.54661 c -33.6104,0 -35.70481,-0.1582 -38.45093,-2.90432 -1.59738,-1.59737 -2.90432,-4.03896 -2.90432,-5.42575 0,-3.70115 248.2732,-251.61503 251.93826,-251.57364 1.71291,0.0194 13.69933,9.87941 29.0547,23.90048 14.37639,13.12715 27.6517,24.68126 29.50069,25.6758 3.8801,2.08704 6.01626,0.0594 6.055,-5.74738 0.0122,-1.83335 1.62622,-4.93734 3.58663,-6.89776 3.56383,-3.56383 3.56928,-3.56439 34.85184,-3.56439 29.35123,0 31.46718,0.17973 34.19176,2.90432 2.78953,2.78953 2.90432,4.84053 2.90432,51.89008 v 48.98576 l 55.90816,55.97607 c 39.98031,40.02887 55.90816,56.8946 55.90816,59.20017 0,1.77324 -1.30694,4.53103 -2.90432,6.1284 -2.74626,2.74627 -4.84053,2.90432 -38.48224,2.90432 h -35.57792 v 91.16296 c 0,80.15934 -0.27286,91.55253 -2.26057,94.3904 l -2.2606,3.22744 H 394.45666 c -144.11469,0 -169.96561,-0.30906 -172.36167,-2.0607 z"
           id="path35"
           transform="scale(0.26458333)" /><path
           style="fill:#ffffff;stroke-width:3.29309"
           d="m 222.09499,777.74922 c -2.73229,-1.99744 -2.83094,-4.91767 -3.21318,-95.11648 l -0.39435,-93.05578 h -35.54661 c -33.6104,0 -35.70481,-0.1582 -38.45093,-2.90432 -1.59738,-1.59737 -2.90432,-4.03896 -2.90432,-5.42575 0,-3.69468 248.27086,-251.61323 251.93826,-251.58074 1.71901,0.0152 13.64471,9.82194 29.0547,23.89217 14.37639,13.1265 27.6517,24.6838 29.50069,25.68291 3.88061,2.09689 6.01623,0.0727 6.055,-5.73908 0.0122,-1.83335 1.62622,-4.93734 3.58663,-6.89776 3.56383,-3.56383 3.56928,-3.56439 34.85184,-3.56439 29.35123,0 31.46718,0.17973 34.19176,2.90432 2.78953,2.78953 2.90432,4.84053 2.90432,51.89008 v 48.98576 l 55.90816,55.97607 c 39.98031,40.02887 55.90816,56.8946 55.90816,59.20017 0,1.77324 -1.30694,4.53103 -2.90432,6.1284 -2.74626,2.74627 -4.84053,2.90432 -38.48224,2.90432 h -35.57792 v 91.16296 c 0,80.15934 -0.27286,91.55253 -2.26057,94.3904 l -2.2606,3.22744 H 394.45666 c -144.11469,0 -169.96561,-0.30906 -172.36167,-2.0607 z"
           id="path36"
           transform="scale(0.26458333)" /></g></g></g></svg>
