<?xml version="1.0" encoding="UTF-8" standalone="no"?>
<!-- Created with Inkscape (http://www.inkscape.org/) -->

<svg
   width="44.130184mm"
   height="58.300709mm"
   viewBox="0 0 44.130184 58.300709"
   version="1.1"
   id="svg1"
   xml:space="preserve"
   sodipodi:docname="cadeadoBranco.svg"
   inkscape:version="1.4.2 (f4327f4, 2025-05-13)"
   xmlns:inkscape="http://www.inkscape.org/namespaces/inkscape"
   xmlns:sodipodi="http://sodipodi.sourceforge.net/DTD/sodipodi-0.dtd"
   xmlns="http://www.w3.org/2000/svg"
   xmlns:svg="http://www.w3.org/2000/svg"><sodipodi:namedview
     id="namedview1"
     pagecolor="#ffffff"
     bordercolor="#000000"
     borderopacity="0.25"
     inkscape:showpageshadow="2"
     inkscape:pageopacity="0.0"
     inkscape:pagecheckerboard="0"
     inkscape:deskcolor="#d1d1d1"
     inkscape:document-units="mm"
     inkscape:zoom="3.5080691"
     inkscape:cx="83.379201"
     inkscape:cy="110.17457"
     inkscape:window-width="1920"
     inkscape:window-height="991"
     inkscape:window-x="-9"
     inkscape:window-y="-9"
     inkscape:window-maximized="1"
     inkscape:current-layer="layer1"><inkscape:page
       x="0"
       y="0"
       width="44.130184"
       height="58.300709"
       id="page2"
       margin="0"
       bleed="0" /></sodipodi:namedview><defs
     id="defs1" /><g
     inkscape:label="Camada 1"
     inkscape:groupmode="layer"
     id="layer1"
     transform="translate(-91.635825,-126.50247)"><path
       style="fill:#ffffff;stroke-width:0.871297"
       d="m 93.079759,184.33443 c -1.321228,-1.00281 -1.443926,-2.48217 -1.443926,-17.40924 0,-16.91549 0.07681,-17.44745 2.609654,-18.07322 l 1.424628,-0.35197 0.222334,-4.4185 c 0.242742,-4.82407 1.088112,-8.00631 2.550663,-9.60151 0.482388,-0.52614 0.877067,-1.07854 0.877067,-1.22755 0,-0.41078 3.379501,-3.5003 4.545441,-4.15542 0.56414,-0.31698 1.11216,-0.66277 1.21782,-0.76843 0.28106,-0.28106 2.72825,-1.17125 3.84217,-1.39763 0.5283,-0.10737 2.27605,-0.28626 3.88388,-0.39755 3.27627,-0.22677 8.04172,0.82204 9.96829,2.19388 0.58235,0.41467 1.15983,0.75395 1.28328,0.75395 0.22746,0 1.13854,0.71668 2.68638,2.1132 0.7369,0.66485 3.01322,3.86789 3.14011,4.41849 0.0243,0.10567 0.17592,0.53791 0.33682,0.96055 1.05866,2.78079 1.25811,3.86428 1.34297,7.29563 0.0522,2.11072 0.15743,3.93884 0.23385,4.06248 0.0764,0.12365 0.83089,0.45317 1.6766,0.73228 0.84572,0.27911 1.50924,0.61222 1.4745,0.74024 -0.0347,0.12802 0.1521,0.62092 0.41519,1.09535 0.3647,0.65765 0.45256,4.53725 0.36979,16.32924 -0.10029,14.28894 -0.16247,15.54611 -0.81666,16.51032 l -0.70811,1.04368 -20.24592,0.0191 c -15.763958,0.0149 -20.387806,-0.0886 -20.886821,-0.46735 z m 25.606561,-8.74711 c -0.0203,-0.73962 -0.33775,-3.07374 -0.70553,-5.18693 -0.8827,-5.07181 -0.88486,-4.84959 0.0563,-5.79071 0.45756,-0.45756 0.65866,-1.2849 0.65866,-2.70978 0,-1.80775 -0.15329,-2.20928 -1.29195,-3.38408 -0.71058,-0.73313 -1.39599,-1.31405 -1.52315,-1.29095 -0.12716,0.0231 -0.52529,-0.0871 -0.88475,-0.24497 -1.7111,-0.75138 -5.09445,0.75874 -5.96498,2.6624 -0.19327,0.42264 -0.39306,1.54961 -0.44398,2.50438 -0.0754,1.41427 0.0813,1.89927 0.84564,2.61736 0.82106,0.77134 0.89663,1.05839 0.60512,2.29834 -0.93443,3.97464 -1.5955,8.8187 -1.30916,9.59308 0.13767,0.37234 1.37365,0.46567 5.08825,0.38421 l 4.9064,-0.10759 z m 6.6826,-29.47674 c 0.0941,-1.97193 -0.1138,-3.3469 -0.88798,-5.87125 -0.34211,-1.11551 -1.00529,-2.30531 -1.28497,-2.30531 -0.1919,0 -0.43546,-0.33096 -0.54124,-0.73546 -0.19348,-0.73988 -2.55855,-2.46212 -4.70001,-3.42256 -1.72378,-0.7731 -6.06404,-0.89994 -7.95579,-0.23249 -3.40297,1.20064 -6.80231,4.71698 -7.52897,7.78811 -0.30465,1.28757 -0.53719,6.22161 -0.3199,6.78785 0.19485,0.50777 1.71926,0.5708 11.66446,0.48232 L 125.25485,148.5 Z"
       id="path71"
       inkscape:export-filename="cadeadoBranco.svg"
       inkscape:export-xdpi="74.064293"
       inkscape:export-ydpi="74.064293" /></g></svg>
